<svg xmlns="http://www.w3.org/2000/svg" viewBox="0 0 176.802 102.47">
    <defs>
        <style>.a,.e,.j,.k{fill:#e1f2fc;}.a,.e,.f,.g,.i,.j,.k{stroke:#0083e3;}.a{stroke-width:3px;}.b{fill:#0083e3;}.c,.f{fill:#fff;}.d,.g,.h,.i{fill:none;}.e,.i,.j{stroke-width:2px;}.h{stroke:#3fa2f7;}.j,.k{stroke-miterlimit:10;}</style>
    </defs>
    <g transform="translate(-180.964 -417.881)">
        <g transform="translate(182 419.381)">
            <path class="a" d="M349.371,304.5a4.867,4.867,0,0,0-4.871,4.863v86.914a3.244,3.244,0,0,0,3.247,3.242H482.523a3.244,3.244,0,0,0,3.247-3.242V309.363A4.867,4.867,0,0,0,480.9,304.5Z" transform="translate(-327.18 -304.5)"></path>
            <path class="b" d="M371,415.666H503.175V334H371Z" transform="translate(-348.552 -328.291)"></path>
            <path class="c" d="M373,416.892H504.4V336H373Z" transform="translate(-350.164 -329.904)"></path>
            <path class="d" d="M272.384,797.451c-2.16,0-4.861-1.293-6.017-1.844-.164-.079-.281-.135-.368-.174V793H437.654v2.433c-.087.041-.2.095-.368.174-1.146.552-3.828,1.844-5.97,1.844H272.384Z" transform="translate(-263.871 -698.465)"></path>
            <path class="a" d="M437.734,792.5H265.5v2.928c.2,0,3.874,2.1,6.686,2.1H431.094c2.793,0,6.44-2.109,6.632-2.109.006,0,.008-.017.008-.017Z" transform="translate(-263.468 -698.061)"></path>
            <path class="b" d="M266.363,805l-.193.387H437.63l.193-.387Z" transform="translate(-264.008 -708.143)"></path>
            <path class="b" d="M666.481,793.935h-19.6A1.9,1.9,0,0,1,645,792.019V792h23.416v.019a1.9,1.9,0,0,1-1.887,1.916" transform="translate(-569.527 -697.658)"></path>
            <path class="b" d="M703.525,319.007a.677.677,0,1,1-.677-.677.678.678,0,0,1,.677.677" transform="translate(-615.633 -315.654)"></path>
            <path class="e" d="M20.642,45.638H.9a2.882,2.882,0,0,1-2.9-2.9V-4.1A2.888,2.888,0,0,1,.9-7H20.642a2.863,2.863,0,0,1,2.9,2.9V42.735A2.857,2.857,0,0,1,20.642,45.638Z" transform="translate(2.194 54.316)"></path>
            <path class="f" d="M28.529,23.5H5.5V64.333H28.529Z" transform="translate(-3.855 29.718)"></path>
            <path class="g" d="M58.04,9.694a.183.183,0,0,1-.194.194H54.364a.194.194,0,1,1,0-.387h3.483a.183.183,0,0,1,.194.194Z" transform="translate(-43.106 41.009)"></path>
            <path class="g" d="M62.944.717A.387.387,0,1,1,62.557.33a.388.388,0,0,1,.387.387Z" transform="translate(-49.558 48.405)"></path>
            <path class="g" d="M40.944,8.717a.387.387,0,1,1-.387-.387.388.388,0,0,1,.387.387Z" transform="translate(-31.816 41.953)"></path>
            <path class="h" d="M130.887,52.5H130.5v3.677h.387c-.025,0,0-.035,0,0V52.5c0,.035-.025,0,0,0Z" transform="translate(-104.665 6.331)"></path>
            <path class="i" d="M-2.806,27.33h0c-.13,0-.194.035-.194,0v1.742c0-.035.064,0,.194,0h0V27.33Z" transform="translate(3 26.63)"></path>
            <path class="i" d="M-2.806,52H-3c.045,0,0,.035,0,0v3.677c0-.035.045,0,0,0h.194V52Z" transform="translate(3 6.734)"></path>
            <path class="i" d="M-2.806,77H-3c.045,0,0,.035,0,0v3.677c0-.035.045,0,0,0h.194V77Z" transform="translate(3 -13.428)"></path>
        </g>
        <g transform="translate(253.524 447.613)">
            <path class="j" d="M2.982,4.465A17.458,17.458,0,0,1,9.228,3.37a.776.776,0,0,1,.78.772h0V5.506s-.114.352.364.215a.746.746,0,0,1,.129-.029c.715-.1,3.758-.418,3.758-.418s.179.06.179-.317V2.986s-.031-.179.334-.226A25.127,25.127,0,0,1,21.7,2.734c.089.01.306-.032.269.478V4.985s-.109.33.4.3c.04,0,.078,0,.118,0,.691.064,3.65.419,3.65.419s.309.125.262-.293V3.38s-.009-.182.266-.164A32.889,32.889,0,0,1,33.73,4.44a.212.212,0,0,1,.17.236v13.2s-.334,10.6-9.007,17.65a17.767,17.767,0,0,1-6.635,3.75.769.769,0,0,1-.466-.037A25.17,25.17,0,0,1,4.475,26.524C4.018,25.388,2.5,21.817,2.5,19.781V5.183A.765.765,0,0,1,2.982,4.465Z" transform="translate(-2.5 -2.501)"></path>
            <path class="j" d="M54.534,56.782V51.025a.8.8,0,0,0-.617-.746,54.758,54.758,0,0,0-10.6-1.039h-.232A56.638,56.638,0,0,0,32.417,50.3a.794.794,0,0,0-.617.745v5.781c0,.456.012,7.641,4.7,13.012a27.463,27.463,0,0,0,6.224,5.476.953.953,0,0,0,.9,0,27.428,27.428,0,0,0,6.215-5.476C54.642,64.326,54.536,56.869,54.534,56.782Z" transform="translate(-27.464 -42.389)"></path>
        </g>
        <g transform="translate(189.856 486.12)">
            <path class="k" d="M2.667,3.184A6.075,6.075,0,0,1,4.841,2.8a.27.27,0,0,1,.271.269h0v.474s-.04.122.127.075a.26.26,0,0,1,.045-.01c.249-.033,1.308-.145,1.308-.145s.062.021.062-.11V2.67s-.011-.062.116-.079a8.744,8.744,0,0,1,2.412-.009c.031,0,.107-.011.094.166v.617s-.038.115.14.106h.041c.24.022,1.27.146,1.27.146s.108.043.091-.1V2.807s0-.063.093-.057a11.444,11.444,0,0,1,2.456.426.074.074,0,0,1,.059.082V7.85a8.96,8.96,0,0,1-3.134,6.142,6.182,6.182,0,0,1-2.309,1.3.268.268,0,0,1-.162-.013A8.759,8.759,0,0,1,3.187,10.86,8.255,8.255,0,0,1,2.5,8.514V3.434A.266.266,0,0,1,2.667,3.184Z" transform="translate(-2.5 -2.501)"></path>
            <path class="k" d="M39.711,51.864v-2a.277.277,0,0,0-.215-.26,19.055,19.055,0,0,0-3.689-.362h-.081a19.709,19.709,0,0,0-3.712.369.276.276,0,0,0-.215.259V51.88a7.41,7.41,0,0,0,1.634,4.528A9.556,9.556,0,0,0,35.6,58.314a.332.332,0,0,0,.314,0,9.544,9.544,0,0,0,2.163-1.906A7.439,7.439,0,0,0,39.711,51.864Z" transform="translate(-30.291 -46.856)"></path>
        </g>
    </g>
</svg>
