<svg xmlns="http://www.w3.org/2000/svg" viewBox="0 0 100.176 100">
    <defs>
        <style>.a{fill:#fff;}.b{fill:#e1f2fc;stroke:#707070;}.c{fill:#0083e3;}.d{stroke:none;}.e{fill:none;}</style>
    </defs>
    <g transform="translate(-1056 -520.655)">
        <rect class="a" width="39.001" height="20.501" transform="translate(1125.858 576.267) rotate(45)"></rect>
        <rect class="a" width="37.501" height="20.501" transform="translate(1073.167 523.325) rotate(45)"></rect>
        <g class="b" transform="translate(1063.11 597.823) rotate(-45)">
            <rect class="d" width="99.254" height="21.001"></rect>
            <rect class="e" x="0.5" y="0.5" width="98.254" height="20.001"></rect>
        </g>
        <path class="c" d="M318.38,317.685h0a5.134,5.134,0,1,0-7.26,0A5.138,5.138,0,0,0,318.38,317.685Zm-5.663-1.6a2.875,2.875,0,1,1,4.068,0A2.858,2.858,0,0,1,312.718,316.088Z" transform="translate(823.787 288.967)"></path>
        <path class="c" d="M95.132,23.558s0,0,0,0l.007-.007.31-.31-.007-.008A12.607,12.607,0,0,0,77.626,5.415l-.007-.007-.31.31-.008.008a.009.009,0,0,0,0,.005L3.213,79.81l.03.03a1.733,1.733,0,0,0-.785,1.233L.021,98.869a1.752,1.752,0,0,0,1.735,1.988,1.893,1.893,0,0,0,.238-.015l17.8-2.438a1.749,1.749,0,0,0,1.233-.785l.03.03ZM86.217,5.528a9.112,9.112,0,0,1,7.563,14.2L81.131,7.078A9.044,9.044,0,0,1,86.217,5.528Zm-8.6,4.828L90.5,23.238,21.047,92.693,16.2,87.846,71.951,32.094l-3.338-3.338L12.861,84.508l-4.7-4.7ZM3.8,97.059,5.809,82.4,18.454,95.051Z" transform="translate(1055.996 519.131)"></path>
        <path class="c" d="M28.5,44.631l3.193-3.193L6.135,15.882,16.562,5.455,21.508,10.4,17.92,13.985l2.833,2.833,3.585-3.588,2.883,2.883L23.635,19.7l2.833,2.833,3.588-3.588,2.883,2.883L27.63,27.133l2.833,2.833,5.305-5.305,3.515,3.515L35.7,31.763,38.528,34.6l3.588-3.588,0,0,3.193-3.193L18.16.664a2.256,2.256,0,0,0-3.193,0L1.344,14.285a2.256,2.256,0,0,0,0,3.193Z" transform="translate(1055.487 520.652)"></path>
        <path class="c" d="M261.994,244.481c-.04-.04-.082-.08-.125-.117L233.453,215.95l-8.5,8.5,2.825,2.825,5.308-5.308L257.2,246.081l-10.428,10.428L219.833,229.57l-3.193,3.2L245.176,261.3a2.256,2.256,0,0,0,3.193,0l13.623-13.621s0,0,.005-.005A2.263,2.263,0,0,0,261.994,244.481Z" transform="translate(893.521 358.693)"></path>
    </g>
</svg>
