<?xml version="1.0" encoding="utf-8"?>
<!-- Generator: Adobe Illustrator 22.0.1, SVG Export Plug-In . SVG Version: 6.00 Build 0)  -->
<svg version="1.1" id="Layer_1" xmlns="http://www.w3.org/2000/svg" xmlns:xlink="http://www.w3.org/1999/xlink" x="0px" y="0px"
	 viewBox="0 0 55 46.8" style="enable-background:new 0 0 55 46.8;" xml:space="preserve">
<style type="text/css">
	.st0{fill:#FFFFFF;}
</style>
<path class="st0" d="M48.5,9.8V3.3c0-1.3-1.1-2.4-2.4-2.4H3.9C2.5,0.9,1.4,2,1.4,3.3v6.5C1.4,9.8,48.5,9.8,48.5,9.8z M13.3,5.1
	c0.4-0.4,1.1-0.4,1.5,0c0.2,0.2,0.3,0.5,0.3,0.8c0,0.3-0.1,0.5-0.3,0.8c-0.2,0.2-0.5,0.3-0.8,0.3s-0.5-0.1-0.8-0.3
	C13.1,6.4,13,6.1,13,5.9C13,5.6,13.1,5.3,13.3,5.1z M9.4,5.1c0.4-0.4,1.1-0.4,1.5,0c0.2,0.2,0.3,0.5,0.3,0.8c0,0.3-0.1,0.5-0.3,0.8
	c-0.2,0.2-0.5,0.3-0.8,0.3S9.5,6.8,9.4,6.6C9.1,6.4,9,6.1,9,5.9C9,5.6,9.1,5.3,9.4,5.1z M5.4,5.1c0.4-0.4,1.1-0.4,1.5,0
	c0.2,0.2,0.3,0.5,0.3,0.8c0,0.3-0.1,0.5-0.3,0.8C6.7,6.8,6.4,6.9,6.1,6.9c-0.3,0-0.5-0.1-0.8-0.3C5.2,6.4,5.1,6.2,5.1,5.9
	C5.1,5.6,5.2,5.3,5.4,5.1z"/>
<path class="st0" d="M31,36c0-6.9,5.6-12.5,12.5-12.5c1.8,0,3.5,0.4,5,1.1V12.8h-47v26.7c0,1.3,1.1,2.4,2.4,2.4h28.6
	C31.5,40.1,31,38.1,31,36z"/>
<path class="st0" d="M43.4,25.9c-5.5,0-10,4.5-10,10c0,5.5,4.5,10,10,10c5.5,0,10-4.5,10-10C53.4,30.4,49,25.9,43.4,25.9z
	 M48.9,33.3l-5.8,7.1h0c-0.2,0.3-0.6,0.5-1,0.5c-0.4,0-0.7-0.2-1-0.4l0,0L38,37.1l0,0c-0.2-0.2-0.4-0.6-0.4-0.9
	c0-0.7,0.6-1.3,1.3-1.3c0.4,0,0.7,0.2,1,0.4l0,0l2.1,2.2l4.8-5.9l0,0c0.2-0.3,0.6-0.5,1-0.5c0.7,0,1.3,0.6,1.3,1.3
	C49.2,32.8,49,33.1,48.9,33.3L48.9,33.3z"/>
<g>
</g>
<g>
</g>
<g>
</g>
<g>
</g>
<g>
</g>
<g>
</g>
</svg>
