<?xml version="1.0" encoding="utf-8"?>
<!-- Generator: Adobe Illustrator 22.0.1, SVG Export Plug-In . SVG Version: 6.00 Build 0)  -->
<svg version="1.1" id="Layer_1" xmlns="http://www.w3.org/2000/svg" xmlns:xlink="http://www.w3.org/1999/xlink" x="0px" y="0px"
	 viewBox="0 0 55 46.8" style="enable-background:new 0 0 55 46.8;" xml:space="preserve">
<style type="text/css">
	.st0{fill:#FFFFFF;}
</style>
<path class="st0" d="M54.5,11.6h-54V3.4c0-1.9,1.6-3.6,3.6-3.7l46.7,0c2,0,3.7,1.7,3.7,3.7V11.6z M2.5,9.6h50V3.4
	c0-1-0.7-1.7-1.7-1.7H4.2C3.3,1.8,2.5,2.5,2.5,3.4V9.6z"/>
<g>
	<path class="st0" d="M20.6,5c0.4-0.4,1.2-0.4,1.7,0c0.2,0.2,0.4,0.5,0.4,0.8s-0.1,0.6-0.4,0.8S21.8,7,21.5,7
		c-0.3,0-0.6-0.1-0.8-0.4c-0.2-0.2-0.4-0.5-0.4-0.8S20.4,5.2,20.6,5z"/>
	<path class="st0" d="M21.4,4.7c0.3,0,0.6,0.1,0.9,0.3c0.2,0.2,0.4,0.5,0.4,0.8s-0.1,0.6-0.4,0.8C22,6.8,21.8,7,21.5,7
		s-0.6-0.1-0.8-0.4c-0.2-0.2-0.4-0.5-0.4-0.8s0.1-0.6,0.3-0.8C20.8,4.8,21.1,4.7,21.4,4.7 M21.4,2.7c-0.9,0-1.7,0.3-2.2,0.9
		c-0.6,0.6-0.9,1.4-0.9,2.2c0,1,0.5,1.7,0.9,2.1C19.7,8.6,20.6,9,21.5,9c0.9,0,1.5-0.4,1.8-0.7l0.1-0.1c0.8-0.5,1.3-1.4,1.3-2.5
		c0-1.1-0.6-1.8-1-2.2l-0.1-0.1l-0.1-0.1C23,3,22.2,2.7,21.4,2.7L21.4,2.7z"/>
</g>
<g>
	<path class="st0" d="M13.2,5c0.4-0.4,1.2-0.4,1.7,0c0.2,0.2,0.4,0.5,0.4,0.8s-0.1,0.6-0.4,0.8C14.7,6.8,14.4,7,14.1,7
		s-0.7-0.1-0.8-0.4c-0.3-0.2-0.4-0.5-0.4-0.8S13,5.2,13.2,5z"/>
	<path class="st0" d="M14,4.7c0.3,0,0.6,0.1,0.9,0.3c0.2,0.2,0.4,0.5,0.4,0.8s-0.1,0.6-0.4,0.8C14.7,6.8,14.4,7,14.1,7
		s-0.7-0.1-0.8-0.4c-0.3-0.2-0.4-0.5-0.4-0.8S13,5.2,13.2,5C13.4,4.8,13.7,4.7,14,4.7 M14,2.7c-0.9,0-1.7,0.3-2.2,0.9
		c-0.6,0.6-0.9,1.4-0.9,2.2c0,0.8,0.3,1.6,0.9,2.1C12.3,8.6,13.1,9,14.1,9c1,0,1.7-0.5,2.1-0.9c0.7-0.6,1.1-1.4,1.1-2.3
		c0-1.1-0.6-1.8-1-2.2l-0.1-0.1l-0.1-0.1C15.6,3,14.8,2.7,14,2.7L14,2.7z"/>
</g>
<g>
	<path class="st0" d="M5.8,5c0.5-0.4,1.3-0.4,1.7,0c0.2,0.2,0.4,0.5,0.4,0.8S7.7,6.4,7.5,6.7S7,7,6.7,7S6.1,6.9,5.8,6.7
		C5.6,6.5,5.5,6.2,5.5,5.8C5.5,5.5,5.6,5.2,5.8,5z"/>
	<path class="st0" d="M6.7,4.7C7,4.7,7.3,4.8,7.5,5c0.2,0.2,0.4,0.5,0.4,0.8S7.7,6.4,7.5,6.7C7.3,7,7,7,6.7,7S6.1,6.9,5.8,6.7
		C5.6,6.5,5.5,6.2,5.5,5.8c0-0.3,0.1-0.6,0.3-0.8C6,4.8,6.4,4.7,6.7,4.7 M6.7,2.7C5.9,2.7,5.1,3,4.6,3.4L4.5,3.5L4.4,3.6
		C3.8,4.1,3.5,5,3.5,5.8C3.5,7,4,7.7,4.4,8.1l0.1,0.1l0.2,0.1C5.3,8.8,6,9,6.7,9c0.4,0,1.7,0,2.5-1.2c0.3-0.4,0.7-1.1,0.7-2
		c0-1.1-0.6-1.8-1-2.2C8.3,3,7.6,2.7,6.7,2.7L6.7,2.7z"/>
</g>
<path class="st0" d="M50.8,47.1H4.2c-2,0-3.7-1.7-3.7-3.7V12.9h54v30.5C54.5,45.4,52.8,47.1,50.8,47.1z M2.5,14.9v28.5
	c0,1,0.7,1.7,1.7,1.7h46.6c1,0,1.7-0.7,1.7-1.7V14.9H2.5z"/>
<path class="st0" d="M27.5,18.3c-6,0-10.8,4.9-10.8,10.8s4.9,10.8,10.8,10.8c6,0,10.8-4.9,10.8-10.8S33.5,18.3,27.5,18.3z
	 M33.8,26.9l-6.2,7.6l0,0c-0.3,0.3-0.7,0.5-1.1,0.5s-0.8-0.2-1.1-0.5l0,0L22,30.9l0,0c-0.2-0.3-0.4-0.6-0.4-1c0-0.8,0.6-1.4,1.4-1.4
	c0.4,0,0.8,0.2,1.1,0.5l0,0l2.2,2.4l5.2-6.3l0,0c0.3-0.3,0.7-0.5,1.1-0.5c0.8,0,1.4,0.6,1.4,1.4C34.1,26.3,34,26.6,33.8,26.9
	L33.8,26.9z"/>
</svg>
