<?xml version="1.0" encoding="utf-8"?>
<!-- Generator: Adobe Illustrator 22.0.1, SVG Export Plug-In . SVG Version: 6.00 Build 0)  -->
<svg version="1.1" id="Layer_1" xmlns="http://www.w3.org/2000/svg" xmlns:xlink="http://www.w3.org/1999/xlink" x="0px" y="0px"
	 viewBox="0 0 55 46.8" style="enable-background:new 0 0 55 46.8;" xml:space="preserve">
<style type="text/css">
	.st0{fill:#FFFFFF;}
</style>
<g>
	<path class="st0" d="M54,10.4V3.1c0-1.5-1.2-2.7-2.7-2.7H3.7C2.2,0.3,1,1.5,1,3.1v7.3C1,10.4,54,10.4,54,10.4z M14.3,5.1
		c0.4-0.4,1.3-0.4,1.7,0c0.2,0.2,0.4,0.5,0.4,0.8S16.3,6.5,16,6.8c-0.2,0.2-0.5,0.4-0.8,0.4S14.6,7,14.3,6.8C14.1,6.5,14,6.2,14,5.9
		C14,5.6,14.2,5.3,14.3,5.1z M9.9,5.1c0.4-0.4,1.3-0.4,1.7,0C11.9,5.3,12,5.6,12,5.9s-0.1,0.6-0.4,0.8c-0.2,0.2-0.5,0.4-0.8,0.4
		S10.1,7,9.9,6.8C9.7,6.5,9.6,6.2,9.6,5.9S9.7,5.3,9.9,5.1z M5.4,5.1c0.4-0.4,1.3-0.4,1.7,0c0.2,0.2,0.4,0.5,0.4,0.8
		S7.4,6.5,7.1,6.8S6.6,7.1,6.3,7.1C6,7.1,5.7,7,5.4,6.8C5.2,6.6,5.1,6.3,5.1,5.9C5.1,5.6,5.2,5.3,5.4,5.1z"/>
	<path class="st0" d="M1,13.7v30.1c0,1.5,1.2,2.7,2.7,2.7h47.5c1.5,0,2.7-1.2,2.7-2.7V13.7H1z M27.5,40.3c-6.1,0-11-4.9-11-11
		s4.9-11,11-11c6.1,0,11,4.9,11,11S33.6,40.3,27.5,40.3z"/>
	<path class="st0" d="M21.9,31.1l3.4,3.7l0,0c0.3,0.3,0.6,0.5,1.1,0.5c0.5,0,0.9-0.2,1.1-0.5h0l6.3-7.8h0c0.2-0.3,0.3-0.6,0.3-0.9
		c0-0.8-0.7-1.5-1.5-1.5c-0.5,0-0.9,0.2-1.1,0.5l0,0l-5.3,6.5l-2.3-2.5l0,0c-0.3-0.3-0.6-0.5-1.1-0.5c-0.8,0-1.5,0.7-1.5,1.5
		C21.6,30.5,21.7,30.8,21.9,31.1L21.9,31.1z"/>
</g>
<g>
</g>
<g>
</g>
<g>
</g>
<g>
</g>
<g>
</g>
<g>
</g>
</svg>
