<?xml version="1.0" encoding="utf-8"?>
<!-- Generator: Adobe Illustrator 22.0.1, SVG Export Plug-In . SVG Version: 6.00 Build 0)  -->
<svg version="1.1" id="Layer_1" xmlns="http://www.w3.org/2000/svg" xmlns:xlink="http://www.w3.org/1999/xlink" x="0px" y="0px"
	 viewBox="0 0 58.5 55.9" style="enable-background:new 0 0 58.5 55.9;" xml:space="preserve">
<style type="text/css">
	.st0{fill:#FFFFFF;}
</style>
<path class="st0" d="M0.1,16.3l0,37.3c0,1.3,1,2.3,2.3,2.3h18.5c1.3,0,2.3-1,2.3-2.3V16.3c0-1.3-1-2.3-2.3-2.3H2.3
	C1.1,14.1,0.1,15.1,0.1,16.3z M15.8,16.1c0,0.3-0.2,0.5-0.5,0.5H7.9c-0.3,0-0.5-0.2-0.5-0.5c0-0.3,0.2-0.5,0.5-0.5h7.5
	C15.6,15.6,15.8,15.8,15.8,16.1z M10.4,53.9c0-0.7,0.5-1.2,1.2-1.2c0.7,0,1.2,0.5,1.2,1.2c0,0.7-0.5,1.2-1.2,1.2
	C11,55.1,10.4,54.6,10.4,53.9z M2.1,18.1h19v33.8h-19V18.1z"/>
<path class="st0" d="M23.4,55.9h32.5c1.5,0,2.7-1.2,2.7-2.7V2.6c0-1.5-1.2-2.7-2.7-2.7H21.3c-1.5,0-2.7,1.2-2.7,2.7v10.3h2.7V5.6
	h34.6v44.6H24.3v3.4C24.3,54.5,24,55.3,23.4,55.9z M44.9,2.5c0,0.4-0.3,0.7-0.7,0.7H33c-0.4,0-0.7-0.3-0.7-0.7
	c0-0.4,0.3-0.7,0.7-0.7h11.3C44.6,1.8,44.9,2.1,44.9,2.5z M37,53.1c0-0.9,0.7-1.6,1.6-1.6c0.9,0,1.6,0.7,1.6,1.6
	c0,0.9-0.7,1.6-1.6,1.6C37.7,54.7,37,54,37,53.1z"/>
<g>
	<path class="st0" d="M17.1,41.4c0,0.3,0,0.5,0,0.7c0,0.2-0.1,0.3-0.1,0.5c0,0.1-0.1,0.2-0.2,0.3s-0.1,0.1-0.2,0.1H8.7
		c-0.3,0-0.5-0.1-0.7-0.3c-0.2-0.2-0.3-0.5-0.3-0.8V26.1c0-0.1,0-0.2,0.1-0.2s0.2-0.1,0.3-0.2c0.1,0,0.3-0.1,0.5-0.1
		c0.2,0,0.5,0,0.8,0c0.3,0,0.6,0,0.9,0c0.2,0,0.4,0.1,0.5,0.1c0.1,0,0.2,0.1,0.3,0.2c0.1,0.1,0.1,0.2,0.1,0.2V40h5.4
		c0.1,0,0.2,0,0.2,0.1c0.1,0,0.1,0.1,0.2,0.2c0,0.1,0.1,0.3,0.1,0.4C17.1,40.9,17.1,41.1,17.1,41.4z"/>
</g>
<g>
	<path class="st0" d="M49.2,22.4H32.3c-1.9,0-3.4,1.5-3.4,3.4v14.2c0,1.9,1.5,3.4,3.4,3.4h16.9c1.9,0,3.4-1.5,3.4-3.4V25.9
		C52.6,24,51.1,22.4,49.2,22.4z M48.1,36.9c-0.4,1.1-1,2-1.8,2.7c-0.8,0.7-1.7,1.2-2.8,1.6c-1.1,0.3-2.4,0.5-3.9,0.5h-4.1
		c-0.3,0-0.5-0.1-0.7-0.3c-0.2-0.2-0.3-0.5-0.3-0.8v-15c0-0.4,0.1-0.7,0.3-0.8c0.2-0.2,0.4-0.3,0.7-0.3h4.4c1.5,0,2.8,0.2,3.9,0.5
		c1.1,0.4,2,0.9,2.7,1.6c0.7,0.7,1.3,1.6,1.7,2.6c0.4,1,0.6,2.2,0.6,3.6C48.7,34.5,48.5,35.8,48.1,36.9z"/>
	<path class="st0" d="M43.9,28.9c-0.4-0.5-1-0.9-1.6-1.2c-0.7-0.3-1.5-0.4-2.6-0.4h-1.8V39h1.8c1,0,1.8-0.1,2.4-0.4
		c0.7-0.2,1.2-0.6,1.6-1.1c0.4-0.5,0.8-1.1,1-1.9s0.3-1.6,0.3-2.6c0-0.8-0.1-1.6-0.3-2.3C44.6,30,44.3,29.4,43.9,28.9z"/>
</g>
<g>
</g>
<g>
</g>
<g>
</g>
<g>
</g>
<g>
</g>
<g>
</g>
</svg>
