<?xml version="1.0" encoding="utf-8"?>
<!-- Generator: Adobe Illustrator 22.0.1, SVG Export Plug-In . SVG Version: 6.00 Build 0)  -->
<svg version="1.1" id="Layer_1" xmlns="http://www.w3.org/2000/svg" xmlns:xlink="http://www.w3.org/1999/xlink" x="0px" y="0px"
	 viewBox="0 0 62.4 55" style="enable-background:new 0 0 62.4 55;" xml:space="preserve">
<style type="text/css">
	.st0{fill:#FFFFFF;}
</style>
<path class="st0" d="M57.5,4.8v44.7h-53V4.8H57.5 M58.5,0.8h-55c-1.6,0-3,1.3-3,3v46.7c0,1.7,1.4,3,3,3h55c1.7,0,3-1.3,3-3V3.8
	C61.5,2.2,60.2,0.8,58.5,0.8L58.5,0.8z"/>
<g>
	<path class="st0" d="M20.3,15.8v11.9l10.3,5.9c3-6.2,0.3-13.7-5.9-16.7C23.3,16.3,21.9,15.9,20.3,15.8z"/>
	<path class="st0" d="M18.4,15.8v13l11.3,6.5c-3.9,5.7-11.7,7.1-17.4,3.2S5.1,26.9,9.1,21.2C11.2,18.1,14.6,16.1,18.4,15.8z"/>
</g>
<path class="st0" d="M49.8,18.7h3.9v18.5h-3.9V18.7z"/>
<path class="st0" d="M42.8,37.2V26.7h3.9v10.5H42.8z"/>
<path class="st0" d="M35.8,37.2V16.4h3.9v20.8H35.8z"/>
<g>
</g>
<g>
</g>
<g>
</g>
<g>
</g>
<g>
</g>
<g>
</g>
</svg>
