<?xml version="1.0" encoding="utf-8"?>
<!-- Generator: Adobe Illustrator 22.0.1, SVG Export Plug-In . SVG Version: 6.00 Build 0)  -->
<svg version="1.1" id="Layer_1" xmlns="http://www.w3.org/2000/svg" xmlns:xlink="http://www.w3.org/1999/xlink" x="0px" y="0px"
	 viewBox="0 0 62.4 55" style="enable-background:new 0 0 62.4 55;" xml:space="preserve">
<style type="text/css">
	.st0{fill:#FFFFFF;}
</style>
<g>
	<path class="st0" d="M42.3,28.7c0-0.1,0-0.2,0-0.3H26.3V12.8c-8.7,0.1-15.7,7.1-15.7,15.8c0,8.8,7.1,15.8,15.8,15.8
		C35.2,44.5,42.3,37.4,42.3,28.7z"/>
	<path class="st0" d="M45.4,25c-0.2-8.6-7.2-15.5-15.8-15.5h-0.1V25H45.4z"/>
</g>
<path class="st0" d="M58.1,2.6H3.9C2,2.6,0.5,4.1,0.5,6v43c0,1.9,1.5,3.4,3.4,3.4h54.2c1.9,0,3.4-1.5,3.4-3.4V6
	C61.5,4.1,60,2.6,58.1,2.6z M51.4,47.6c0,0.4-0.3,0.7-0.7,0.7H5.3c-0.4,0-0.7-0.3-0.7-0.7V7.4c0-0.4,0.3-0.7,0.7-0.7h45.4
	c0.4,0,0.7,0.3,0.7,0.7V47.6z M56.5,33.6c-2,0-3.6-1.6-3.6-3.6s1.6-3.6,3.6-3.6c2,0,3.6,1.6,3.6,3.6S58.5,33.6,56.5,33.6z"/>
<g>
</g>
<g>
</g>
<g>
</g>
<g>
</g>
<g>
</g>
<g>
</g>
</svg>
