<?xml version="1.0" encoding="utf-8"?>
<!-- Generator: Adobe Illustrator 22.0.1, SVG Export Plug-In . SVG Version: 6.00 Build 0)  -->
<svg version="1.1" id="Layer_1" xmlns="http://www.w3.org/2000/svg" xmlns:xlink="http://www.w3.org/1999/xlink" x="0px" y="0px"
	 viewBox="0 0 55 60.5" style="enable-background:new 0 0 55 60.5;" xml:space="preserve">
<style type="text/css">
	.st0{fill:#FFFDFD;}
</style>
<path class="st0" d="M23.1,33.4c0.4,0.3,0.6,0.7,0.6,1.1c0,0.5,0.3,1,0.7,1.3v1.7c0,1.3,0.9,2.4,2.1,2.8c0,0.5,0.4,0.8,0.9,0.8
	c0.5,0,0.9-0.4,0.9-0.8c1.2-0.4,2.1-1.5,2.1-2.8v-1.7c0.4-0.3,0.7-0.8,0.7-1.3c0-0.4,0.2-0.9,0.5-1.1c2-1.4,3.2-3.7,3.2-6.1
	c0-4.1-3.3-7.4-7.4-7.4c-0.3,0-0.6,0-0.8,0c-3.5,0.4-6.2,3.2-6.5,6.7C19.7,29.3,20.9,31.8,23.1,33.4z"/>
<path class="st0" d="M13.4,28.1h2.9c0.3,0,0.5-0.2,0.5-0.5S16.6,27,16.3,27h-2.9c-0.3,0-0.5,0.2-0.5,0.5S13.1,28.1,13.4,28.1z"/>
<path class="st0" d="M38.5,28.1h2.9c0.3,0,0.5-0.2,0.5-0.5S41.6,27,41.4,27h-2.9c-0.3,0-0.5,0.2-0.5,0.5S38.2,28.1,38.5,28.1z"/>
<path class="st0" d="M17.5,37.9c0.1,0,0.3-0.1,0.4-0.2l2-2c0.2-0.2,0.2-0.5,0-0.7c-0.2-0.2-0.5-0.2-0.7,0l-2,2
	c-0.2,0.2-0.2,0.5,0,0.7C17.2,37.9,17.4,37.9,17.5,37.9z"/>
<path class="st0" d="M35.2,20.2c0.1,0,0.3-0.1,0.4-0.2l2-2c0.2-0.2,0.2-0.5,0-0.7c-0.2-0.2-0.5-0.2-0.7,0l-2,2
	c-0.2,0.2-0.2,0.5,0,0.7C35,20.2,35.1,20.2,35.2,20.2z"/>
<path class="st0" d="M27.4,17c0.3,0,0.5-0.2,0.5-0.5v-2.9c0-0.3-0.2-0.5-0.5-0.5c-0.3,0-0.5,0.2-0.5,0.5v2.9
	C26.9,16.7,27.1,17,27.4,17z"/>
<path class="st0" d="M37.3,37.9c0.1,0,0.3-0.1,0.4-0.2c0.2-0.2,0.2-0.5,0-0.7l-2-2c-0.2-0.2-0.5-0.2-0.7,0s-0.2,0.5,0,0.7l2,2
	C37,37.9,37.1,37.9,37.3,37.9z"/>
<path class="st0" d="M19.2,20.1c0.1,0.1,0.2,0.2,0.4,0.2c0.1,0,0.3-0.1,0.4-0.2c0.2-0.2,0.2-0.5,0-0.7l-2-2c-0.2-0.2-0.5-0.2-0.7,0
	c-0.2,0.2-0.2,0.5,0,0.7L19.2,20.1z"/>
<path class="st0" d="M42.4,0.3h-30c-3.3,0-6,2.7-6,6v48c0,3.3,2.7,6,6,6h30c3.3,0,6-2.7,6-6v-48C48.4,3,45.7,0.3,42.4,0.3z M22.5,4
	h9.7c0.6,0,1.1,0.5,1.1,1.1c0,0.6-0.5,1.1-1.1,1.1h-9.7c-0.6,0-1.1-0.5-1.1-1.1C21.4,4.5,21.9,4,22.5,4z M27.4,57.3
	c-1.3,0-2.3-1-2.3-2.3c0-1.3,1-2.3,2.3-2.3s2.3,1,2.3,2.3C29.7,56.2,28.6,57.3,27.4,57.3z M45.4,49.8h-36V9.3h36V49.8z"/>
<g>
</g>
<g>
</g>
<g>
</g>
<g>
</g>
<g>
</g>
<g>
</g>
</svg>
