<?xml version="1.0" encoding="utf-8"?>
<!-- Generator: Adobe Illustrator 22.0.1, SVG Export Plug-In . SVG Version: 6.00 Build 0)  -->
<svg version="1.1" id="Layer_1" xmlns="http://www.w3.org/2000/svg" xmlns:xlink="http://www.w3.org/1999/xlink" x="0px" y="0px"
	 viewBox="0 0 58.6 56" style="enable-background:new 0 0 58.6 56;" xml:space="preserve">
<style type="text/css">
	.st0{fill:#FFFFFF;}
</style>
<path class="st0" d="M0,16.5v37.3C0,55,1.1,56,2.3,56h18.5c1.3,0,2.3-1,2.3-2.3V16.5c0-1.3-1-2.3-2.3-2.3H2.3
	C1.1,14.2,0,15.2,0,16.5z M15.8,16.2c0,0.3-0.2,0.5-0.5,0.5H7.8c-0.3,0-0.5-0.2-0.5-0.5c0-0.3,0.2-0.5,0.5-0.5h7.5
	C15.6,15.7,15.8,15.9,15.8,16.2z M10.4,54c0-0.7,0.5-1.2,1.2-1.2s1.2,0.5,1.2,1.2c0,0.7-0.5,1.2-1.2,1.2S10.4,54.7,10.4,54z M2,18.2
	h19V52H2V18.2z"/>
<path class="st0" d="M23.4,56h32.5c1.5,0,2.7-1.2,2.7-2.7V2.7c0-1.5-1.2-2.7-2.7-2.7L21.3,0c-1.5,0-2.7,1.2-2.7,2.7V13h2.7V5.7h34.6
	v44.6H24.3v3.4C24.3,54.6,23.9,55.4,23.4,56z M44.9,2.6c0,0.4-0.3,0.7-0.7,0.7H32.9c-0.4,0-0.7-0.3-0.7-0.7c0-0.4,0.3-0.7,0.7-0.7
	h11.3C44.6,1.9,44.9,2.2,44.9,2.6z M36.9,53.2c0-0.9,0.7-1.6,1.6-1.6c0.9,0,1.6,0.7,1.6,1.6c0,0.9-0.7,1.6-1.6,1.6
	C37.7,54.8,36.9,54.1,36.9,53.2z"/>
<g>
	<path class="st0" d="M16.8,40.4c0,0.2,0,0.4,0,0.6c0,0.2,0,0.3-0.1,0.4c0,0.1-0.1,0.2-0.1,0.2c-0.1,0-0.1,0.1-0.2,0.1H9.5
		c-0.3,0-0.5-0.1-0.6-0.2c-0.2-0.2-0.3-0.4-0.3-0.7V27.1c0-0.1,0-0.1,0.1-0.2s0.1-0.1,0.2-0.2c0.1,0,0.3-0.1,0.5-0.1
		c0.2,0,0.4,0,0.7,0c0.3,0,0.5,0,0.7,0c0.2,0,0.3,0.1,0.5,0.1c0.1,0,0.2,0.1,0.2,0.2c0.1,0.1,0.1,0.1,0.1,0.2v12.1h4.7
		c0.1,0,0.1,0,0.2,0.1s0.1,0.1,0.1,0.2c0,0.1,0.1,0.2,0.1,0.4C16.8,40,16.8,40.2,16.8,40.4z"/>
</g>
<g>
	<path class="st0" d="M42,29.5c-0.4-0.4-0.8-0.8-1.4-1.1c-0.6-0.3-1.3-0.4-2.3-0.4h-1.5v10.2h1.6c0.8,0,1.5-0.1,2.1-0.3
		c0.6-0.2,1.1-0.5,1.4-1c0.4-0.4,0.7-1,0.9-1.6S43,34,43,33.1c0-0.7-0.1-1.4-0.2-2C42.6,30.5,42.3,30,42,29.5z"/>
	<path class="st0" d="M46.6,23.9H31.8c-1.6,0-3,1.3-3,3v12.4c0,1.6,1.4,3,3,3h14.8c1.7,0,3-1.4,3-3V26.9
		C49.6,25.2,48.3,23.9,46.6,23.9z M45.6,36.5c-0.4,1-0.9,1.8-1.5,2.4c-0.7,0.6-1.5,1.1-2.5,1.4c-1,0.3-2.1,0.4-3.4,0.4h-3.6
		c-0.3,0-0.5-0.1-0.6-0.2c-0.2-0.2-0.3-0.4-0.3-0.7V26.7c0-0.3,0.1-0.6,0.3-0.7c0.2-0.2,0.4-0.2,0.6-0.2h3.9c1.3,0,2.5,0.2,3.4,0.5
		c0.9,0.3,1.7,0.8,2.4,1.4c0.6,0.6,1.1,1.4,1.5,2.3c0.3,0.9,0.5,2,0.5,3.1C46.2,34.4,46,35.6,45.6,36.5z"/>
</g>
</svg>
