<?xml version="1.0" encoding="utf-8"?>
<!-- Generator: Adobe Illustrator 22.0.1, SVG Export Plug-In . SVG Version: 6.00 Build 0)  -->
<svg version="1.1" id="Layer_1" xmlns="http://www.w3.org/2000/svg" xmlns:xlink="http://www.w3.org/1999/xlink" x="0px" y="0px"
	 viewBox="0 0 59.4 48.2" style="enable-background:new 0 0 59.4 48.2;" xml:space="preserve">
<style type="text/css">
	.st0{fill:#FFFFFF;}
</style>
<path class="st0" d="M56.4,5.1c0-5-3.3-5-5-5H7.8c-1.6,0-5,0-5,5v34.8h53.6V5.1z M51.4,34.9H7.8V5.1h43.6V34.9z"/>
<path class="st0" d="M35.7,41.8V42c0,0.5-0.7,1-1.5,1h-9.2c-0.8,0-1.5-0.4-1.5-1v-0.2H0v5.2c0,0.5,0.7,1,1.5,1h56.2
	c0.8,0,1.5-0.4,1.5-1v-5.2H35.7z"/>
<rect x="28" y="14.9" class="st0" width="17.3" height="3"/>
<rect x="14" y="22.7" class="st0" width="31.3" height="3"/>
<rect x="14" y="27.8" class="st0" width="11.3" height="3"/>
<rect x="34" y="27.8" class="st0" width="11.3" height="3"/>
<polygon class="st0" points="19.6,8 21.5,11.7 25.6,12.3 22.6,15.2 23.3,19.4 19.6,17.4 15.9,19.4 16.6,15.2 13.6,12.3 17.8,11.7 
	"/>
<rect x="28" y="10.3" class="st0" width="17.3" height="3"/>
<g>
</g>
<g>
</g>
<g>
</g>
<g>
</g>
<g>
</g>
<g>
</g>
</svg>
