<?xml version="1.0" encoding="utf-8"?>
<!-- Generator: Adobe Illustrator 22.0.1, SVG Export Plug-In . SVG Version: 6.00 Build 0)  -->
<svg version="1.1" id="Layer_1" xmlns="http://www.w3.org/2000/svg" xmlns:xlink="http://www.w3.org/1999/xlink" x="0px" y="0px"
	 viewBox="0 0 58.6 56" style="enable-background:new 0 0 58.6 56;" xml:space="preserve">
<style type="text/css">
	.st0{fill:#FFFFFF;}
</style>
<path class="st0" d="M0.1,16.4v37.3c0,1.3,1,2.3,2.3,2.3h18.5c1.3,0,2.3-1,2.3-2.3V16.4c0-1.3-1-2.3-2.3-2.3H2.4
	C1.1,14.1,0.1,15.1,0.1,16.4z M15.9,17.1c0,0.3-0.2,0.5-0.5,0.5H7.9c-0.3,0-0.5-0.2-0.5-0.5c0-0.3,0.2-0.5,0.5-0.5h7.5
	C15.6,16.6,15.9,16.8,15.9,17.1z M10.4,53c0-0.7,0.5-1.2,1.2-1.2c0.7,0,1.2,0.5,1.2,1.2c0,0.7-0.5,1.2-1.2,1.2
	C11,54.1,10.4,53.6,10.4,53z M3.1,20.1h17v29.8h-17V20.1z"/>
<path class="st0" d="M23.4,55.9h32.5c1.5,0,2.7-1.2,2.7-2.7V2.7c0-1.5-1.2-2.7-2.7-2.7l-35.5,0c-1.5,0-2.7,1.2-2.7,2.7v10.3h3.7V7.6
	h33.6v40.6H24.3v5.4C24.3,54.5,24,55.3,23.4,55.9z M45,3.5c0,0.4-0.3,0.7-0.7,0.7H33c-0.4,0-0.7-0.3-0.7-0.7c0-0.4,0.3-0.7,0.7-0.7
	h11.3C44.7,2.9,45,3.2,45,3.5z M37,52.1c0-0.9,0.7-1.6,1.6-1.6c0.9,0,1.6,0.7,1.6,1.6c0,0.9-0.7,1.6-1.6,1.6
	C37.7,53.7,37,53,37,52.1z"/>
<path class="st0" d="M39,17.4c-6.4,0-11.5,5.1-11.5,11.5S32.6,40.4,39,40.4s11.5-5.1,11.5-11.5S45.4,17.4,39,17.4z M45.7,26.5
	l-6.6,8.1h0c-0.3,0.3-0.7,0.6-1.2,0.6c-0.4,0-0.8-0.2-1.1-0.5l0,0l-3.5-3.8l0,0c-0.3-0.3-0.4-0.6-0.4-1c0-0.8,0.7-1.5,1.5-1.5
	c0.4,0,0.8,0.2,1.1,0.5l0,0l2.4,2.6l5.5-6.7l0,0c0.3-0.3,0.7-0.6,1.2-0.6c0.8,0,1.5,0.7,1.5,1.5C46,25.9,45.9,26.3,45.7,26.5
	L45.7,26.5z"/>
<polygon class="st0" points="11.6,22.2 13.6,26.2 18.1,26.9 14.9,30 15.6,34.5 11.6,32.4 7.6,34.5 8.4,30 5.1,26.9 9.6,26.2 "/>
<rect x="4.4" y="40" class="st0" width="14.2" height="3"/>
<rect x="4.4" y="44.3" class="st0" width="14.2" height="3"/>
<g>
</g>
<g>
</g>
<g>
</g>
<g>
</g>
<g>
</g>
<g>
</g>
</svg>
