<?xml version="1.0" encoding="utf-8"?>
<!-- Generator: Adobe Illustrator 22.0.1, SVG Export Plug-In . SVG Version: 6.00 Build 0)  -->
<svg version="1.1" id="Layer_1" xmlns="http://www.w3.org/2000/svg" xmlns:xlink="http://www.w3.org/1999/xlink" x="0px" y="0px"
	 viewBox="0 0 55.2 55.2" style="enable-background:new 0 0 55.2 55.2;" xml:space="preserve">
<style type="text/css">
	.st0{fill:#FFFFFF;}
</style>
<path class="st0" d="M27.4,9.6c-7.2,0-13,5.8-13,13s5.8,13,13,13s13-5.8,13-13S34.6,9.6,27.4,9.6z M35,19.9L27.5,29h0
	c-0.3,0.4-0.8,0.6-1.3,0.6c-0.5,0-0.9-0.2-1.3-0.6l0,0l-4-4.3l0,0c-0.3-0.3-0.5-0.7-0.5-1.2c0-0.9,0.8-1.7,1.7-1.7
	c0.5,0,0.9,0.2,1.3,0.6l0,0l2.7,2.9l6.2-7.6l0,0c0.3-0.4,0.8-0.6,1.3-0.6c0.9,0,1.7,0.8,1.7,1.7C35.3,19.2,35.2,19.6,35,19.9
	L35,19.9z"/>
<g>
	<path class="st0" d="M52.4,5.1c0-1.6-1.3-3-3-3H5.8c-1.6,0-3,1.3-3,3V43h49.6V5.1z M49.4,40H5.8V5.1h43.6V40z"/>
	<path class="st0" d="M33.7,43.9v0.2c0,0.5-0.7,1-1.5,1H23c-0.8,0-1.5-0.4-1.5-1v-0.2H0v7.2c0,0.5,0.7,1,1.5,1h52.2
		c0.8,0,1.5-0.4,1.5-1v-7.2H33.7z"/>
</g>
</svg>
