<?xml version="1.0" encoding="utf-8"?>
<!-- Generator: Adobe Illustrator 22.0.1, SVG Export Plug-In . SVG Version: 6.00 Build 0)  -->
<svg version="1.1" id="Layer_1" xmlns="http://www.w3.org/2000/svg" xmlns:xlink="http://www.w3.org/1999/xlink" x="0px" y="0px"
	 viewBox="0 0 61.1 48" style="enable-background:new 0 0 61.1 48;" xml:space="preserve">
<style type="text/css">
	.st0{fill:#FFFFFF;}
</style>
<path class="st0" d="M21.7,28.4c0,0.3,0,0.6,0,0.8s-0.1,0.4-0.1,0.5c-0.1,0.1-0.1,0.2-0.2,0.3c-0.1,0.1-0.2,0.1-0.3,0.1h-9.2
	c-0.3,0-0.6-0.1-0.9-0.3c-0.2-0.2-0.3-0.5-0.3-1V10.6c0-0.1,0-0.2,0.1-0.3s0.2-0.1,0.3-0.2c0.2-0.1,0.4-0.1,0.6-0.1c0.3,0,0.6,0,1,0
	c0.4,0,0.7,0,1,0c0.3,0,0.5,0.1,0.6,0.1c0.2,0.1,0.3,0.1,0.3,0.2c0.1,0.1,0.1,0.2,0.1,0.3v16.1h6.3c0.1,0,0.2,0,0.3,0.1
	c0.1,0.1,0.1,0.1,0.2,0.3s0.1,0.3,0.1,0.5C21.7,27.8,21.7,28.1,21.7,28.4z"/>
<g>
	<path class="st0" d="M42.3,15.1c-0.5-0.6-1.1-1.1-1.9-1.4c-0.8-0.3-1.8-0.5-3-0.5h-2.1v13.6h2.1c1.1,0,2.1-0.1,2.8-0.4
		c0.8-0.3,1.4-0.7,1.9-1.3c0.5-0.6,0.9-1.3,1.1-2.2c0.3-0.9,0.4-1.9,0.4-3c0-0.9-0.1-1.8-0.3-2.6C43.1,16.4,42.8,15.7,42.3,15.1z"/>
	<path class="st0" d="M49.6,7.6H27.9c-1.7,0-3,1.4-3,3v18.6c0,1.6,1.3,3,3,3h21.7c1.7,0,3-1.4,3-3V10.6C52.6,9,51.3,7.6,49.6,7.6z
		 M47.2,24.5c-0.5,1.3-1.2,2.4-2.1,3.2c-0.9,0.8-2,1.4-3.3,1.8s-2.8,0.6-4.6,0.6h-4.8c-0.3,0-0.6-0.1-0.9-0.3
		c-0.2-0.2-0.3-0.5-0.3-1V11.3c0-0.5,0.1-0.8,0.3-1c0.2-0.2,0.5-0.3,0.9-0.3h5.1c1.8,0,3.3,0.2,4.5,0.6s2.3,1,3.1,1.9
		c0.9,0.8,1.5,1.8,1.9,3s0.7,2.6,0.7,4.2C47.9,21.6,47.6,23.2,47.2,24.5z"/>
</g>
<path class="st0" d="M58.4,3c0-1.6-1.3-3-3-3H5.8c-1.6,0-3,1.3-3,3v37.8h55.6V3z M55.4,37.9H5.8V3h49.6V37.9z"/>
<path class="st0" d="M36.7,41.8V42c0,0.5-0.7,1-1.5,1H26c-0.8,0-1.5-0.4-1.5-1v-0.2H0V47c0,0.5,0.7,1,1.5,1h58.2
	c0.8,0,1.5-0.4,1.5-1v-5.2H36.7z"/>
</svg>
