<?xml version="1.0"?>
<svg xmlns="http://www.w3.org/2000/svg" viewBox="0 0 183 130.66">
    <defs>
        <style>.cls-1{fill:#e5eaee;}.cls-2{fill:#e1f2fc;}.cls-2,.cls-6{stroke:#0083e3;}.cls-3,.cls-6{fill:#0083e3;}.cls-4{fill:#fff;}.cls-5{fill:none;}.cls-7{fill:#9ff;}</style>
    </defs>
    <g>
        <ellipse class="cls-1" cx="91.5" cy="109.16" rx="91.5" ry="21.5"></ellipse>
        <path class="cls-2" d="M30.55,18.35a4.47,4.47,0,0,0-4.48,4.47v80a3,3,0,0,0,3,3h124a3,3,0,0,0,3-3h0v-80a4.47,4.47,0,0,0-4.48-4.47Z"></path>
        <path class="cls-3" d="M30.79,98.75H152.42V23.6H30.79Z"></path>
        <path class="cls-4" d="M31.14,98.39H152.06V24H31.14Z"></path>
        <path class="cls-5" d="M18,109.44a14.72,14.72,0,0,1-5.53-1.7l-.34-.16v-2.24h158v2.24l-.34.16a14.77,14.77,0,0,1-5.49,1.7Z"></path>
        <path class="cls-2" d="M170.5,105.25H12V108c.18,0,3.57,1.93,6.15,1.93H164.39c2.57,0,5.92-1.94,6.1-1.94v-2.69Z"></path>
        <path class="cls-3" d="M12.3,107.48l-.18.35H169.9l.18-.35Z"></path>
        <path class="cls-3" d="M99.35,106.94h-18a1.75,1.75,0,0,1-1.74-1.76h0v0h21.55v0a1.74,1.74,0,0,1-1.73,1.76h0"></path>
        <path class="cls-3" d="M91,21.43a.62.62,0,0,1-.62.62.62.62,0,0,1,0-1.24h0a.62.62,0,0,1,.62.62"></path>
        <circle class="cls-3" cx="76.33" cy="50.57" r="1.82"></circle>
        <circle class="cls-3" cx="104.59" cy="50.57" r="1.82"></circle>
        <path class="cls-6" d="M71.66,45.83c-.06-.55,1-6.54,6.43-4.18.34.53.26.88-1.1.44-.5-.14-3.85-1.37-4.61,4.31C72.07,46.58,71.71,46.38,71.66,45.83Z"></path>
        <path class="cls-6" d="M102.55,41.82c.42-.36,5.92-3,7.1,2.87-.23.58-.56.72-1-.65-.16-.49-1.08-3.93-6.16-1.3C102.17,42.59,102.13,42.18,102.55,41.82Z"></path>
        <path class="cls-3"
              d="M91,74.58c-10.35,0-18.87-4.52-19.89-10.31A6.53,6.53,0,0,0,71,65.44c0,6.35,9,11.49,20,11.49s20-5.14,20-11.49a7.59,7.59,0,0,0-.1-1.17C109.88,70.06,101.36,74.58,91,74.58Z"></path>
        <polygon class="cls-3" points="162.28 18.34 161.04 11.37 154.06 10.13 161.04 8.88 162.28 1.91 163.52 8.88 170.5 10.13 163.52 11.37 162.28 18.34"></polygon>
        <polygon class="cls-3" points="175.93 17.99 175.5 15.56 173.06 15.13 175.5 14.69 175.93 12.26 176.36 14.69 178.8 15.13 176.36 15.56 175.93 17.99"></polygon>
        <circle class="cls-7" cx="170.05" cy="20.81" r="2.38"></circle>
        <circle class="cls-7" cx="169.86" cy="1.19" r="1.19"></circle>
        <polygon class="cls-3" points="10.85 94.41 9.61 87.44 2.63 86.19 9.61 84.95 10.85 77.98 12.09 84.95 19.07 86.19 12.09 87.44 10.85 94.41"></polygon>
        <circle class="cls-7" cx="15.62" cy="96.88" r="2.38"></circle>
        <circle class="cls-7" cx="15.43" cy="77.26" r="1.19"></circle>
    </g>
</svg>
