<svg xmlns="http://www.w3.org/2000/svg" viewBox="0 0 188.817 147.977">
    <defs>
        <style>.a{fill:#e5eaee;}.b{fill:#e1f2fc;}.b,.f,.h{stroke:#0083e3;}.c,.f,.g{fill:#0083e3;}.d{fill:#fff;}.e,.h{fill:none;}.g{font-size:46px;font-family:Quicksand-Bold, Quicksand;font-weight:700;}.h{stroke-linecap:round;stroke-width:2px;}</style>
    </defs>
    <g transform="translate(-1004 -1753.023)">
        <ellipse class="a" cx="91.5" cy="21.5" rx="91.5" ry="21.5" transform="translate(1004 1858)"></ellipse>
        <path class="b" d="M348.982,304.5a4.479,4.479,0,0,0-4.482,4.475v79.981a2.985,2.985,0,0,0,2.988,2.983H471.514a2.985,2.985,0,0,0,2.988-2.983V308.975a4.479,4.479,0,0,0-4.482-4.475Z" transform="translate(685.569 1484.182)"></path>
        <path class="c" d="M371,409.152H492.632V334H371Z" transform="translate(663.788 1459.936)"></path>
        <path class="d" d="M373,410.439H493.919V336H373Z" transform="translate(662.144 1458.292)"></path>
        <path class="e" d="M271.875,797.1a14.793,14.793,0,0,1-5.537-1.7c-.151-.073-.258-.125-.338-.16V793H423.961v2.239c-.08.037-.187.087-.338.16a14.6,14.6,0,0,1-5.494,1.7H271.875Z" transform="translate(750.089 1082.677)"></path>
        <path class="b" d="M424,792.5H265.5v2.694c.183,0,3.565,1.936,6.153,1.936H417.885c2.57,0,5.927-1.941,6.1-1.941.005,0,.007-.016.007-.016Z" transform="translate(750.5 1083.088)"></path>
        <path class="c" d="M266.348,805l-.178.356H423.953l.178-.356Z" transform="translate(749.949 1072.814)"></path>
        <path class="c" d="M664.768,793.781H646.735A1.749,1.749,0,0,1,645,792.018V792h21.548v.018a1.749,1.749,0,0,1-1.736,1.763" transform="translate(438.583 1083.499)"></path>
        <path class="c" d="M703.417,318.953a.623.623,0,1,1-.623-.623.624.624,0,0,1,.623.623" transform="translate(391.594 1472.815)"></path>
        <circle class="c" cx="1.817" cy="1.817" r="1.817" transform="translate(1078.516 1828.086)"></circle>
        <circle class="c" cx="1.817" cy="1.817" r="1.817" transform="translate(1106.774 1828.086)"></circle>
        <path class="f" d="M.116,2.313c.255-.49,4.387-4.951,7.662,0,0,.627-.254.874-1.159-.232-.34-.391-2.476-3.24-6.208,1.1C.056,3.166-.139,2.8.116,2.313Z" transform="matrix(0.839, -0.545, 0.545, 0.839, 1074.299, 1823.29)"></path>
        <path class="f" d="M.116,2.313c.255-.49,4.387-4.951,7.662,0,0,.627-.254.874-1.159-.232-.34-.391-2.476-3.24-6.208,1.1C.056,3.166-.139,2.8.116,2.313Z" transform="translate(1107.307 1818.969) rotate(22)"></path>
        <text class="g" transform="matrix(0.799, 0.602, -0.602, 0.799, 1159.274, 1756.396)">
            <tspan x="8.879" y="46">?</tspan>
        </text>
        <text class="g" transform="translate(1111.348 1759.593) rotate(-9)">
            <tspan x="8.879" y="46">?</tspan>
        </text>
        <line class="h" y1="4" x2="25" transform="translate(1083.5 1842.5)"></line>
    </g>
</svg>
