<svg width="100%" height="100%" viewBox="0 0 159 129" version="1.1" xmlns="http://www.w3.org/2000/svg" xmlns:xlink="http://www.w3.org/1999/xlink" xml:space="preserve" xmlns:serif="http://www.serif.com/" style="fill-rule:evenodd;clip-rule:evenodd;stroke-linejoin:round;stroke-miterlimit:2;"><path d="M70.259,14.242c-7.437,4.272 -13.45,7.951 -18.039,11.037c-4.589,3.086 -9.257,7.161 -14.005,12.224c-4.43,4.748 -7.833,9.732 -10.206,14.954c-2.374,5.222 -4.035,11.948 -4.985,20.176l11.394,0c9.811,0 17.525,2.413 23.143,7.24c5.617,4.826 8.426,11.907 8.426,21.244c0,6.646 -2.492,12.857 -7.477,18.633c-4.985,5.775 -11.829,8.663 -20.532,8.663c-13.609,0 -23.341,-4.47 -29.196,-13.411c-5.855,-8.94 -8.782,-20.69 -8.782,-35.248c0,-10.286 2.215,-19.662 6.646,-28.128c4.431,-8.465 9.811,-16.022 16.141,-22.668c6.488,-6.804 13.371,-12.58 20.65,-17.327c7.28,-4.747 13.372,-8.624 18.277,-11.631l8.545,14.242Zm87.825,0c-7.438,4.272 -13.451,7.951 -18.04,11.037c-4.589,3.086 -9.257,7.161 -14.004,12.224c-4.589,4.906 -8.031,9.93 -10.326,15.073c-2.294,5.143 -3.916,11.829 -4.865,20.057l11.393,0c9.811,0 17.525,2.413 23.143,7.24c5.617,4.826 8.426,11.907 8.426,21.244c0,6.646 -2.492,12.857 -7.477,18.633c-4.984,5.775 -11.828,8.663 -20.532,8.663c-13.608,0 -23.34,-4.47 -29.195,-13.411c-5.855,-8.94 -8.783,-20.69 -8.783,-35.248c0,-10.286 2.216,-19.662 6.646,-28.128c4.431,-8.465 9.811,-16.022 16.141,-22.668c6.488,-6.804 13.372,-12.58 20.651,-17.327c7.279,-4.747 13.371,-8.624 18.277,-11.631l8.545,14.242Z" style="fill-rule:nonzero;"/></svg>
