<?xml version="1.0" encoding="utf-8"?>
<!-- Generator: Adobe Illustrator 22.0.1, SVG Export Plug-In . SVG Version: 6.00 Build 0)  -->
<svg version="1.1" id="Layer_1" xmlns="http://www.w3.org/2000/svg" xmlns:xlink="http://www.w3.org/1999/xlink" x="0px" y="0px"
	 viewBox="0 0 128 128" style="enable-background:new 0 0 128 128;" xml:space="preserve">
<path d="M64.7,127.5C29.7,127.5,1.2,99,1.2,64S29.7,0.5,64.7,0.5S128.2,29,128.2,64S99.7,127.5,64.7,127.5z M64.7,11.4
	c-29,0-52.6,23.6-52.6,52.6s23.6,52.6,52.6,52.6S117.3,93,117.3,64S93.7,11.4,64.7,11.4z"/>
<g>
	<path d="M57.3,88.4c0-2.4,0.6-4.2,1.9-5.4s3.1-1.8,5.6-1.8c2.3,0,4.2,0.6,5.5,1.9c1.3,1.2,1.9,3,1.9,5.4c0,2.2-0.7,4-2,5.3
		c-1.3,1.3-3.1,1.9-5.4,1.9c-2.4,0-4.2-0.6-5.5-1.9C57.9,92.5,57.3,90.7,57.3,88.4z M70,73.9H59.6l-2.2-41.5h14.7L70,73.9z"/>
</g>
</svg>
