<?xml version="1.0" encoding="utf-8"?>
<!-- Generator: Adobe Illustrator 22.0.1, SVG Export Plug-In . SVG Version: 6.00 Build 0)  -->
<svg version="1.1" id="Layer_1" xmlns="http://www.w3.org/2000/svg" xmlns:xlink="http://www.w3.org/1999/xlink" x="0px" y="0px"
	 viewBox="0 0 128 128" style="enable-background:new 0 0 128 128;" xml:space="preserve">
<style type="text/css">
	.st0{fill:#FFFFFF;}
</style>
<g>
	<rect x="39.6" y="26.3" width="47.8" height="5.6"/>
	<rect x="40.1" y="44.1" width="47.8" height="5.6"/>
	<rect x="39.6" y="61.4" width="47.8" height="5.6"/>
	<rect x="39.6" y="78.8" width="47.8" height="5.6"/>
	<rect x="39.6" y="96.1" width="47.8" height="5.6"/>
</g>
<path d="M102.6,29.1v81.5c0,3-2.6,5.6-5.6,5.6H30.6c-3,0-5.6-2.6-5.6-5.6V17.4c0-3,2.6-5.6,5.6-5.6h56.2V0.5H30.6
	c-9.3,0-16.9,7.6-16.9,16.9v93.2c0,9.3,7.6,16.9,16.9,16.9h66.3c9.3,0,16.9-7.6,16.9-16.9l0-83.1L102.6,29.1z"/>
<g>
	<path class="st0" d="M105.4,35.9H86.8c-4.6,0-8.4-3.8-8.4-8.4V8.9c0-4.6,3.8-8.4,8.4-8.4l0,0c4.6,0,27,22.3,27,27l0,0
		C113.8,32.1,110,35.9,105.4,35.9z"/>
	<path d="M86.3,6.2C91,8.6,105.8,23.3,108.1,28c-0.3,1.3-1.4,2.3-2.8,2.3H86.8c-1.5,0-2.8-1.3-2.8-2.8V8.9C84,7.6,85,6.4,86.3,6.2
		 M86.8,0.5c-4.6,0-8.4,3.8-8.4,8.4v18.5c0,4.6,3.8,8.4,8.4,8.4h18.5c4.6,0,8.4-3.8,8.4-8.4S91.5,0.5,86.8,0.5L86.8,0.5z"/>
</g>
<g>
</g>
<g>
</g>
<g>
</g>
<g>
</g>
<g>
</g>
<g>
</g>
</svg>
