<?xml version="1.0" encoding="utf-8"?>
<!-- Generator: Adobe Illustrator 22.0.1, SVG Export Plug-In . SVG Version: 6.00 Build 0)  -->
<svg version="1.1" id="Layer_1" xmlns="http://www.w3.org/2000/svg" xmlns:xlink="http://www.w3.org/1999/xlink" x="0px" y="0px"
	 viewBox="0 0 128 128" style="enable-background:new 0 0 128 128;" xml:space="preserve">
<g>
	<g>
		<path d="M102.6,13.4H25.4c-8.3,0-15.2,6.8-15.2,15.2v83.7c0,8.3,6.8,15.2,15.2,15.2h77.3c8.3,0,15.2-6.8,15.2-15.2V28.6
			C117.8,20.3,111,13.4,102.6,13.4z M102.6,117.4H25.4c-2.7,0-5.1-2.3-5.1-5.1V48.5h87.4v63.9C107.7,115.1,105.4,117.4,102.6,117.4z
			"/>
	</g>
	<path d="M41.2,1.2h-10c-0.6,0-1,0.4-1,1v23.9c0,0.5,0.4,1,1,1h10c0.6,0,1-0.5,1-1V2.2C42.2,1.7,41.7,1.2,41.2,1.2z"/>
	<path d="M99.4,0.5h-10c-0.6,0-1,0.4-1,1v23.9c0,0.6,0.4,1,1,1h10c0.6,0,1-0.4,1-1V1.5C100.4,0.9,99.9,0.5,99.4,0.5z"/>
	<path d="M74.5,82.9h21.8c0.6,0,1,0.4,1,1v21.8c0,0.6-0.4,1-1,1H74.5c-0.5,0-1-0.4-1-1V83.9C73.5,83.4,73.9,82.9,74.5,82.9z"/>
</g>
<g>
</g>
<g>
</g>
<g>
</g>
<g>
</g>
<g>
</g>
<g>
</g>
</svg>
