<?xml version="1.0" encoding="utf-8"?>
<!-- Generator: Adobe Illustrator 22.0.1, SVG Export Plug-In . SVG Version: 6.00 Build 0)  -->
<svg version="1.1" id="Layer_1" xmlns="http://www.w3.org/2000/svg" xmlns:xlink="http://www.w3.org/1999/xlink" x="0px" y="0px"
	 viewBox="0 0 128 128" style="enable-background:new 0 0 128 128;" xml:space="preserve">
<path d="M115.5,118.8h-103c-6.6,0-12-5.4-12-12V21.2c0-6.6,5.4-12,12-12h103c6.6,0,12,5.4,12,12v85.6
	C127.5,113.4,122.1,118.8,115.5,118.8z M12.5,18.8c-1.3,0-2.4,1.1-2.4,2.4v85.6c0,1.3,1.1,2.4,2.4,2.4h103c1.3,0,2.4-1.1,2.4-2.4
	V21.2c0-1.3-1.1-2.4-2.4-2.4H12.5z"/>
<rect x="59.4" y="31.9" width="41.5" height="4.8"/>
<rect x="59.4" y="45" width="41.5" height="4.8"/>
<rect x="25.9" y="60" width="75.1" height="4.8"/>
<rect x="25.9" y="73.1" width="75.1" height="4.8"/>
<rect x="25.9" y="93.8" width="27.2" height="4.8"/>
<rect x="73.8" y="93.8" width="27.2" height="4.8"/>
<polygon points="39.5,29.9 42.6,36.3 49.6,37.3 44.5,42.2 45.7,49.2 39.5,45.9 33.2,49.2 34.4,42.2 29.3,37.3 36.3,36.3 "/>
<g>
</g>
<g>
</g>
<g>
</g>
<g>
</g>
<g>
</g>
<g>
</g>
</svg>
