<?xml version="1.0" encoding="utf-8"?>
<!-- Generator: Adobe Illustrator 22.0.1, SVG Export Plug-In . SVG Version: 6.00 Build 0)  -->
<svg version="1.1" id="Layer_1" xmlns="http://www.w3.org/2000/svg" xmlns:xlink="http://www.w3.org/1999/xlink" x="0px" y="0px"
	 viewBox="0 0 128 128" style="enable-background:new 0 0 128 128;" xml:space="preserve">
<path d="M64,127.5C29,127.5,0.5,99,0.5,64S29,0.5,64,0.5c35,0,63.5,28.5,63.5,63.5S99,127.5,64,127.5z M64,11.4
	C35,11.4,11.4,35,11.4,64S35,116.6,64,116.6S116.6,93,116.6,64S93,11.4,64,11.4z"/>
<g>
	<path d="M62.5,71.7h-6.7c-1.1,0-2-0.9-2-2V31.2c0-1.1,0.9-2,2-2h6.7c1.1,0,2,0.9,2,2v38.6C64.4,70.8,63.5,71.7,62.5,71.7z"/>
	<path d="M54.4,68.2l4.8-4.8c0.8-0.8,2-0.8,2.8,0l27.3,27.3c0.8,0.8,0.8,2,0,2.8l-4.8,4.8c-0.8,0.8-2,0.8-2.8,0L54.4,70.9
		C53.6,70.2,53.6,68.9,54.4,68.2z"/>
</g>
<g>
</g>
<g>
</g>
<g>
</g>
<g>
</g>
<g>
</g>
<g>
</g>
</svg>
