<?xml version="1.0" encoding="utf-8"?>
<!-- Generator: Adobe Illustrator 22.1.0, SVG Export Plug-In . SVG Version: 6.00 Build 0)  -->
<svg version="1.1" xmlns="http://www.w3.org/2000/svg" xmlns:xlink="http://www.w3.org/1999/xlink" x="0px" y="0px"
	 viewBox="0 0 100 100" style="enable-background:new 0 0 100 100;" xml:space="preserve">
<g id="Layer_2">
</g>
<g id="Layer_1">
	<g>
		<path d="M69.4,12.5H31c-9.7,0-17.6,7.9-17.6,17.6v22.8c0,9.7,7.9,17.6,17.6,17.6h5.5c-0.1,3.1-0.6,7.3-2.3,11.6
			c-0.8,2-0.2,4.3,1.5,5.6c1,0.8,2.1,1.2,3.3,1.2c0.8,0,1.7-0.2,2.5-0.6c8.3-4.7,15.3-12.9,19.1-17.9h8.9c9.7,0,17.6-7.9,17.6-17.6
			V30.1C87.1,20.4,79.2,12.5,69.4,12.5z M83,53c0,7.4-6.1,13.5-13.5,13.5h-10c-0.6,0-1.3,0.3-1.6,0.8c-3.4,4.6-10.3,13-18.5,17.6
			c-0.5,0.2-0.9,0.1-1-0.1c-0.2-0.2-0.5-0.5-0.3-1.1c2.3-6.1,2.7-11.6,2.5-15.3c-0.1-1.1-1-1.9-2-1.9H31c-7.4,0-13.5-6.1-13.5-13.5
			V30.1c0-7.4,6.1-13.5,13.5-13.5h38.5c7.4,0,13.5,6.1,13.5,13.5C83,30.1,83,53,83,53z"/>
		<path d="M65.7,31.5h-31c-1.1,0-2,0.9-2,2s0.9,2,2,2h30.9c1.1,0,2-0.9,2-2S66.8,31.5,65.7,31.5z"/>
		<path d="M65.7,47h-31c-1.1,0-2,0.9-2,2s0.9,2,2,2h30.9c1.1,0,2-0.9,2-2S66.8,47,65.7,47z"/>
	</g>
</g>
</svg>
