<?xml version="1.0" encoding="utf-8"?>
<!-- Generator: Adobe Illustrator 22.0.1, SVG Export Plug-In . SVG Version: 6.00 Build 0)  -->
<svg version="1.1" id="Layer_1" xmlns="http://www.w3.org/2000/svg" xmlns:xlink="http://www.w3.org/1999/xlink" x="0px" y="0px"
	 viewBox="0 0 128 128" style="enable-background:new 0 0 128 128;" xml:space="preserve">
<style type="text/css">
	.st0{fill:none;stroke:#000000;stroke-width:5;stroke-miterlimit:10;}
</style>
<path d="M98.9,11.8c3,0,5.6,2.6,5.6,5.6v93.2c0,3-2.6,5.6-5.6,5.6H32.5c-3,0-5.6-2.6-5.6-5.6V17.4c0-3,2.6-5.6,5.6-5.6H98.9
	 M98.9,0.5H32.5c-9.3,0-16.9,7.6-16.9,16.9v93.2c0,9.3,7.6,16.9,16.9,16.9h66.3c9.3,0,16.9-7.6,16.9-16.9V17.4
	C115.8,8.1,108.2,0.5,98.9,0.5L98.9,0.5z"/>
<g>
	<g>
		<line class="st0" x1="41.6" y1="29.1" x2="89.4" y2="29.1"/>
	</g>
	<g>
		<line class="st0" x1="42" y1="46.9" x2="89.9" y2="46.9"/>
	</g>
	<g>
		<line class="st0" x1="41.6" y1="64.2" x2="89.4" y2="64.2"/>
	</g>
	<g>
		<line class="st0" x1="41.6" y1="81.6" x2="89.4" y2="81.6"/>
	</g>
	<g>
		<line class="st0" x1="41.6" y1="98.9" x2="89.4" y2="98.9"/>
	</g>
</g>
<g>
</g>
<g>
</g>
<g>
</g>
<g>
</g>
<g>
</g>
<g>
</g>
</svg>
