<?xml version="1.0" encoding="utf-8"?>
<!-- Generator: Adobe Illustrator 22.0.1, SVG Export Plug-In . SVG Version: 6.00 Build 0)  -->
<svg version="1.1" id="Layer_1" xmlns="http://www.w3.org/2000/svg" xmlns:xlink="http://www.w3.org/1999/xlink" x="0px" y="0px"
	 viewBox="0 0 128 128" style="enable-background:new 0 0 128 128;" xml:space="preserve">
<g>
	<path d="M98.3,9.2c3.3,0,8.7,0.8,8.7,5.8v0.4c0,5.1-5.5,5.8-8.7,5.8H29.7c-3.3,0-8.7-0.8-8.7-5.8v-0.4c0-5.1,5.5-5.8,8.7-5.8H98.3
		 M98.3,0.5H29.7c-9.6,0-17.5,4.9-17.5,14.6v0.4c0,9.6,7.9,14.6,17.5,14.6h68.7c9.6,0,17.5-4.9,17.5-14.6v-0.4
		C115.8,5.4,107.9,0.5,98.3,0.5L98.3,0.5z"/>
	<path d="M98.3,41.7c3.3,0,8.7,0.8,8.7,5.8V48c0,5.1-5.5,5.8-8.7,5.8H29.7c-3.3,0-8.7-0.8-8.7-5.8v-0.4c0-5.1,5.5-5.8,8.7-5.8H98.3
		 M98.3,33H29.7c-9.6,0-17.5,4.9-17.5,14.6V48c0,9.6,7.9,14.6,17.5,14.6h68.7c9.6,0,17.5-4.9,17.5-14.6v-0.4
		C115.8,37.9,107.9,33,98.3,33L98.3,33z"/>
	<path d="M98.3,74.2c3.3,0,8.7,0.8,8.7,5.8v0.4c0,5.1-5.5,5.8-8.7,5.8H29.7c-3.3,0-8.7-0.8-8.7-5.8V80c0-5.1,5.5-5.8,8.7-5.8H98.3
		 M98.3,65.5H29.7c-9.6,0-17.5,4.9-17.5,14.6v0.4c0,9.6,7.9,14.6,17.5,14.6h68.7c9.6,0,17.5-4.9,17.5-14.6V80
		C115.8,70.4,107.9,65.5,98.3,65.5L98.3,65.5z"/>
	<path d="M98.3,106.7c3.3,0,8.7,0.8,8.7,5.8v0.4c0,5.1-5.5,5.8-8.7,5.8H29.7c-3.3,0-8.7-0.8-8.7-5.8v-0.4c0-5.1,5.5-5.8,8.7-5.8
		H98.3 M98.3,98H29.7c-9.6,0-17.5,4.9-17.5,14.6v0.4c0,9.6,7.9,14.6,17.5,14.6h68.7c9.6,0,17.5-4.9,17.5-14.6v-0.4
		C115.8,102.9,107.9,98,98.3,98L98.3,98z"/>
</g>
<g>
</g>
<g>
</g>
<g>
</g>
<g>
</g>
<g>
</g>
<g>
</g>
</svg>
