<?xml version="1.0" encoding="utf-8"?>
<!-- Generator: Adobe Illustrator 22.0.1, SVG Export Plug-In . SVG Version: 6.00 Build 0)  -->
<svg version="1.1" id="Layer_1" xmlns="http://www.w3.org/2000/svg" xmlns:xlink="http://www.w3.org/1999/xlink" x="0px" y="0px"
	 viewBox="0 0 128 128" style="enable-background:new 0 0 128 128;" xml:space="preserve">
<g>
	<path d="M86.5,6.2C91.2,8.6,106,23.3,108.4,28c-0.3,1.3-1.4,2.3-2.8,2.3H87.1c-1.5,0-2.8-1.3-2.8-2.8V8.9
		C84.3,7.6,85.2,6.4,86.5,6.2 M87.1,0.5c-4.6,0-8.4,3.8-8.4,8.4v18.5c0,4.6,3.8,8.4,8.4,8.4h18.5c4.6,0,8.4-3.8,8.4-8.4
		S91.7,0.5,87.1,0.5L87.1,0.5z"/>
	<path d="M66,111l19.7-19.7c0.5-0.5,0.8-1.3,0.8-2c0-0.4-0.1-0.7-0.2-1.1c-0.4-1-1.5-1.7-2.6-1.7H69.6V24.6c0-1.6-1.3-2.8-2.8-2.8
		h-5.6c-1.6,0-2.8,1.3-2.8,2.8v61.9H44.3c-1.1,0-2.2,0.7-2.6,1.7c-0.1,0.3-0.2,0.7-0.2,1.1c0,0.7,0.3,1.5,0.8,2L62,111
		C63.1,112.1,64.9,112.1,66,111z"/>
	<path d="M105.6,35.9h-2.8v74.7c0,3-2.6,5.6-5.6,5.6H30.8c-3,0-5.6-2.6-5.6-5.6V17.4c0-3,2.6-5.6,5.6-5.6h47.8V8.9
		c0-4.6,3.8-8.4,8.4-8.4v0H30.8C21.5,0.5,14,8.1,14,17.4v93.2c0,9.3,7.6,16.9,16.9,16.9h66.3c9.3,0,16.9-7.6,16.9-16.9V27.5
		C114,32.1,110.3,35.9,105.6,35.9z"/>
</g>
<g>
</g>
<g>
</g>
<g>
</g>
<g>
</g>
<g>
</g>
<g>
</g>
</svg>
