<?xml version="1.0" encoding="utf-8"?>
<!-- Generator: Adobe Illustrator 22.0.1, SVG Export Plug-In . SVG Version: 6.00 Build 0)  -->
<svg version="1.1" id="Layer_1" xmlns="http://www.w3.org/2000/svg" xmlns:xlink="http://www.w3.org/1999/xlink" x="0px" y="0px"
	 viewBox="0 0 100 100" style="enable-background:new 0 0 100 100;" xml:space="preserve">
<path d="M49.8,7.9c9.5,0,17.2,7.7,17.2,17.2c0,9.5-7.7,17.2-17.2,17.2s-17.2-7.7-17.2-17.2C32.6,15.6,40.3,7.9,49.8,7.9 M49.8,1.9
	C37,1.9,26.6,12.3,26.6,25.1c0,12.8,10.4,23.2,23.2,23.2s23.2-10.4,23.2-23.2C72.9,12.3,62.6,1.9,49.8,1.9L49.8,1.9z"/>
<path d="M27.7,55.1c6.2,5.1,14,7.9,22.1,7.9c8.1,0,15.9-2.8,22.1-7.9C80.9,62.8,86.2,74,86.2,86c0,3.1-2.5,5.6-5.6,5.6H18.8
	c-3.1,0-5.6-2.5-5.6-5.6C13.2,74,18.6,62.8,27.7,55.1 M28.1,47.3C15.6,55.6,7.2,69.8,7.2,86c0,6.4,5.2,11.6,11.6,11.6h61.8
	c6.4,0,11.6-5.2,11.6-11.6c0-16.2-8.3-30.4-20.9-38.7c-5.3,6-13,9.7-21.6,9.7C41.2,57,33.5,53.3,28.1,47.3L28.1,47.3z"/>
</svg>
