<?xml version="1.0" encoding="utf-8"?>
<!-- Generator: Adobe Illustrator 22.0.1, SVG Export Plug-In . SVG Version: 6.00 Build 0)  -->
<svg version="1.1" id="Layer_1" xmlns="http://www.w3.org/2000/svg" xmlns:xlink="http://www.w3.org/1999/xlink" x="0px" y="0px"
	 viewBox="0 0 128 128" style="enable-background:new 0 0 128 128;" xml:space="preserve">
<style type="text/css">
	.st0{fill:none;}
</style>
<path class="st0" d="M97.2,11.8H64.9v44.6L52.7,44.2c-1.1-1.1-2.9-1.1-4,0L36.5,56.4V11.8h-5.7c-3,0-5.6,2.6-5.6,5.6v93.2
	c0,3,2.6,5.6,5.6,5.6h66.4c3,0,5.6-2.6,5.6-5.6V17.4C102.8,14.4,100.2,11.8,97.2,11.8z"/>
<path d="M97.2,0.5H30.8C21.5,0.5,14,8.1,14,17.4v93.2c0,9.3,7.6,16.9,16.9,16.9h66.3c9.3,0,16.9-7.6,16.9-16.9V17.4
	C114,8.1,106.5,0.5,97.2,0.5z M102.8,110.6c0,3-2.6,5.6-5.6,5.6H30.8c-3,0-5.6-2.6-5.6-5.6V17.4c0-3,2.6-5.6,5.6-5.6h5.7v44.6
	l12.2-12.2c1.1-1.1,2.9-1.1,4,0l12.2,12.2V11.8h32.3c3,0,5.6,2.6,5.6,5.6V110.6z"/>
</svg>
