<svg enable-background="new 0 0 128 128" viewBox="0 0 128 128" xmlns="http://www.w3.org/2000/svg"><path d="m99.3 11.9c3 0 5.6 2.6 5.6 5.6v93.2c0 3-2.6 5.6-5.6 5.6h-66.3c-3 0-5.6-2.6-5.6-5.6v-93.2c0-3 2.6-5.6 5.6-5.6zm0-11.3h-66.3c-9.3 0-16.9 7.6-16.9 16.9v93.2c0 9.3 7.6 16.9 16.9 16.9h66.3c9.3 0 16.9-7.6 16.9-16.9v-93.2c0-9.3-7.6-16.9-16.9-16.9z"/><path d="m65.8 47.1-3.6 10h-9.9l7.7-16.4-7.5-15.9h10l3.4 9.3h.1l3.4-9.3h10l-7.5 15.9 7.8 16.3h-9.9l-3.6-10h-.4z"/><path d="m84.6 71.8c-.9 0-1.8.4-2.4 1.1l-18 17.8-9.6-7.6c-1.5-1.3-3.7-1.1-5 .4s-1.1 3.7.4 5c.1.1.1.1.2.2l12.1 9.6c1.4 1.1 3.4 1 4.7-.3l20.1-20.1c1.4-1.4 1.4-3.6.1-5-.7-.8-1.6-1.2-2.6-1.1z"/></svg>