<?xml version="1.0" encoding="utf-8"?>
<!-- Generator: Adobe Illustrator 22.1.0, SVG Export Plug-In . SVG Version: 6.00 Build 0)  -->
<svg version="1.1" id="Layer_1" xmlns="http://www.w3.org/2000/svg" xmlns:xlink="http://www.w3.org/1999/xlink" x="0px" y="0px"
	 viewBox="0 0 100 100" style="enable-background:new 0 0 100 100;" xml:space="preserve">
<path d="M65.3,59.9c1.8,1.8,1.8,4.7,0,6.4c-0.9,0.9-2.1,1.4-3.2,1.4s-2.3-0.5-3.2-1.4l-9.4-9.4l-9.4,9.4c-0.9,0.9-2.1,1.4-3.2,1.4
	s-2.3-0.5-3.2-1.4c-1.8-1.8-1.8-4.7,0-6.4l9.4-9.4l-9.4-9.4c-1.8-1.8-1.8-4.7,0-6.4c1.8-1.8,4.7-1.8,6.4,0l9.4,9.4l9.4-9.4
	c1.8-1.8,4.7-1.8,6.4,0c1.8,1.8,1.8,4.7,0,6.4l-9.4,9.4L65.3,59.9z M89,50.5C89,72.2,71.2,90,49.5,90S10,72.2,10,50.5
	S27.8,11,49.5,11S89,28.8,89,50.5z M79.9,50.5c0-16.7-13.7-30.4-30.4-30.4S19.1,33.8,19.1,50.5s13.7,30.4,30.4,30.4
	S79.9,67.2,79.9,50.5z"/>
</svg>
