<?xml version="1.0" encoding="utf-8"?>
<!-- Generator: Adobe Illustrator 22.1.0, SVG Export Plug-In . SVG Version: 6.00 Build 0)  -->
<svg version="1.1" xmlns="http://www.w3.org/2000/svg" xmlns:xlink="http://www.w3.org/1999/xlink" x="0px" y="0px"
	 viewBox="0 0 100 100" style="enable-background:new 0 0 100 100;" xml:space="preserve">
<g id="Layer_2">
</g>
<g id="Layer_1">
	<path d="M93.2,83.4l-21.9-22c9.3-14,7.5-32.6-4.4-44.5C60.2,10.2,51.3,6.5,41.8,6.5s-18.3,3.7-25,10.3c-13.7,13.8-13.7,36.2,0,50
		c11.9,11.9,30.5,13.7,44.5,4.5l22,22c1,1,2.8,1,3.8,0l6.1-6.1C94.4,86.1,94.4,84.4,93.2,83.4z M58.8,58.8c-9.3,9.3-24.5,9.3-33.9,0
		c-9.3-9.3-9.3-24.5,0-33.9c9.3-9.3,24.5-9.3,33.9,0C68.1,34.2,68.1,49.5,58.8,58.8z"/>
</g>
</svg>
