<?xml version="1.0" encoding="utf-8"?>
<!-- Generator: Adobe Illustrator 22.0.1, SVG Export Plug-In . SVG Version: 6.00 Build 0)  -->
<svg version="1.1" id="Layer_1" xmlns="http://www.w3.org/2000/svg" xmlns:xlink="http://www.w3.org/1999/xlink" x="0px" y="0px"
	 viewBox="0 0 128 128" style="enable-background:new 0 0 128 128;" xml:space="preserve">
<g>
	<path d="M91.7,49.9H43V31.5c1-11.6,11.2-20.2,22.8-19.2c10.2,0.9,18.4,9,19.2,19.2c0,3.4,2.7,6.1,6.1,6.1c3.4,0,6.1-2.7,6.1-6.1
		C95.9,13.2,80.1-0.7,61.8,0.6C45.2,1.7,31.9,14.9,30.8,31.5v19.3c-6.7,2.3-11.2,8.7-11.2,15.8v44.2c0,9.2,7.5,16.7,16.7,16.7h55.4
		c9.2,0,16.7-7.5,16.7-16.7V66.6C108.4,57.4,100.9,49.9,91.7,49.9z M96.3,110.8c0,2.5-2,4.6-4.6,4.6H36.4c-2.5,0-4.6-2-4.6-4.6V66.6
		c0-2.5,2-4.6,4.6-4.6h55.3c2.5,0,4.6,2,4.6,4.6V110.8z"/>
</g>
<g>
</g>
<g>
</g>
<g>
</g>
<g>
</g>
<g>
</g>
<g>
</g>
</svg>
