<svg xmlns="http://www.w3.org/2000/svg" viewBox="0 0 217.27 256">
    <defs>
        <style>.cls-1,.cls-2{fill:none;stroke-miterlimit:10;stroke-width:5px;}.cls-1{stroke:#0082e3;}.cls-2{stroke:#0a1a23;}</style>
    </defs>
    <g>
        <g>
            <path class="cls-1" d="M185.47,100.69l0-39.27a5.41,5.41,0,0,0-4.17-5.09,366.42,366.42,0,0,0-71.64-7.09h-1.57A379.44,379.44,0,0,0,36,56.48a5.4,5.4,0,0,0-4.17,5.08V101c0,3.11.08,52.13,31.74,88.77,16.8,19.46,31.51,30.84,42.06,37.36a6.39,6.39,0,0,0,6.09,0c10.5-6.5,25.19-17.86,42-37.36C186.2,152.16,185.48,101.29,185.47,100.69Z"></path>
            <path class="cls-2" d="M5.79,15.9C12,13.4,26.83,8.55,48,8.43a5.27,5.27,0,0,1,5.27,5.28V23s-.77,2.4,2.46,1.47a5.22,5.22,0,0,1,.87-.2C61.43,23.62,82,21.42,82,21.42s1.21.41,1.21-2.16V5.81S83,4.59,85.47,4.27s24.24-3.7,46.84-.18c.6.07,2.07-.22,1.82,3.26,0,3.6,0,12.1,0,12.1s-.74,2.25,2.72,2.07a7.12,7.12,0,0,1,.8,0c4.67.44,24.67,2.86,24.67,2.86s2.09.85,1.77-2V8.5s-.06-1.24,1.8-1.12,30.65,2.18,47.7,8.35a1.45,1.45,0,0,1,1.15,1.61V42.46l0,64.91s-2.26,72.33-60.87,120.41c-4.77,3.92-23.55,20.47-44.84,25.58a5.15,5.15,0,0,1-3.15-.25,170.84,170.84,0,0,1-90-86.72c-3.09-7.75-13.36-32.11-13.35-46,0-12.29,0-83.1,0-99.59A5.22,5.22,0,0,1,5.79,15.9Z"></path>
        </g>
    </g>
</svg>
