<svg xmlns="http://www.w3.org/2000/svg" viewBox="0 0 51.682 56.001">
    <defs>
        <style>.a,.b{fill:none;}.a{stroke:#0a1a23;}.a,.b,.c{stroke-miterlimit:10;stroke-width:2px;}.b,.c{stroke:#0082e3;}.c{fill:#0082e3;}</style>
    </defs>
    <g transform="translate(0.5 0.5)">
        <g transform="translate(0.5 0.5)">
            <path class="a" d="M12.552,13.21h0a2.406,2.406,0,0,1,3.393.244L30.139,29.739a2.4,2.4,0,0,1-.217,3.393h0a2.406,2.406,0,0,1-3.393-.244L12.335,16.6A2.38,2.38,0,0,1,12.552,13.21Z" transform="translate(18.742 20.282)"></path>
            <line class="a" x2="4.343" y2="4.967" transform="translate(26.951 28.525)"></line>
            <circle class="b" cx="16.258" cy="16.258" r="16.258"></circle>
            <path class="c" d="M4.172,3.568S15.327-.585,21.814,7.1c-.679.76-5.645-7.03-17.017-2.714C3.738,4.328,3.738,4.328,4.172,3.568Z" transform="translate(5.327 2.837)"></path>
        </g>
    </g>
</svg>
