<svg xmlns="http://www.w3.org/2000/svg" viewBox="0 0 284 284">
    <defs>
        <style>.cls-1,.cls-2{fill:none;stroke-miterlimit:10;stroke-width:5px;}.cls-1{stroke:#0a1a23;}.cls-2{stroke:#0082e3;}</style>
    </defs>
    <g>
        <g>
            <path class="cls-1" d="M141.83,281a15,15,0,0,0,15-14.51A125.55,125.55,0,0,0,265.44,157l.39,0a15,15,0,0,0,0-30l-.39,0A125.55,125.55,0,0,0,156.81,17.51a15,15,0,0,0-29.94-.23A125.53,125.53,0,0,0,16.22,127.09a15,15,0,0,0,0,29.82A125.53,125.53,0,0,0,126.87,266.72,15,15,0,0,0,141.83,281Z"/>
            <circle class="cls-1" cx="142" cy="16.5" r="14"/>
            <circle class="cls-1" cx="142" cy="267.5" r="14"/>
            <circle class="cls-1" cx="267.5" cy="142" r="14"/>
            <circle class="cls-1" cx="16.5" cy="142" r="14"/>
            <rect class="cls-2" x="97.5" y="114.75" width="89" height="89" rx="18.36"/>
            <path class="cls-2" d="M170.4,114.75a31,31,0,0,0,.35-4.65c0-16.49-12.87-29.85-28.75-29.85s-28.75,13.36-28.75,29.85a31,31,0,0,0,.35,4.65Z"/>
            <line class="cls-2" x1="97.5" y1="184.75" x2="186.5" y2="184.75"/>
        </g>
    </g>
</svg>
