<svg xmlns="http://www.w3.org/2000/svg" width="200px" viewBox="0 0 580.58 684.67">
    <defs>
        <style>
            .path{ stroke-dasharray: 2500; stroke-dashoffset: 2500; animation: itsec-loader__dash-animation 3000ms linear infinite; fill:none; stroke:#1072ba; stroke-miterlimit:10; stroke-width:15px; }
            .path-outer { animation: itsec-loader__dash-animation 3000ms linear infinite }
        </style>
    </defs>
    <title>itsec-loader</title>
    <g>
        <g>
            <path class="path"
                  d="M522.48,126.08a4.71,4.71,0,0,0-3.32-4.33C471.9,109.4,391,93.14,292.66,93.14h-3.91A941.87,941.87,0,0,0,61.45,122a4.7,4.7,0,0,0-3.34,4.32l0,137.93c-.08,1.41-3.69,139.49,87.31,244.83,61.84,71.63,114.77,102.51,141.77,114.83a8.69,8.69,0,0,0,6.29,0c27-12.28,79.87-43.22,141.76-114.84,90.92-105.34,87.32-243.42,87.3-244.59Z"/>
        </g>
        <g>
            <path class="path path-outer"
                  d="M573,271.88V47.17a4.82,4.82,0,0,0-3.08-4.31c-12.19-4-59.81-18.37-128.6-22.33a3,3,0,0,0-3.25,3.08v39.8a2.7,2.7,0,0,1-3.22,2.75c-22.38-3.45-47-6.37-73.42-8.33a3.55,3.55,0,0,1-3.25-3.48V15.74A3.82,3.82,0,0,0,355,12.06c-9.59-1.19-39-4.56-66.6-4.56-24,0-52.92,3.84-62.45,5.21a3.87,3.87,0,0,0-3.22,3.74l0,38.09a3.56,3.56,0,0,1-3.25,3.5c-26.44,2-51,5-73.38,8.39a2.69,2.69,0,0,1-3.21-2.75V23.61a3,3,0,0,0-3.25-3.08c-68.84,4-116.69,18.33-128.92,22.34a4.8,4.8,0,0,0-3.07,4.3V271.88S1.17,423,103.87,541.9C194.8,647.22,270.84,672.42,287,676.81a14.24,14.24,0,0,0,6.33,0c16.2-4.39,92.25-29.57,183.14-134.92C579.2,423,573,271.88,573,271.88Z"/>
        </g>
    </g>
</svg>
