<svg xmlns="http://www.w3.org/2000/svg" width="200px" viewBox="0 0 203.31 240.72">
    <defs>
        <style>.path{fill:#1072ba;}.path{fill:#69c;}</style>
    </defs>
    <g>
        <g>
            <path class="path"
                  d="M203.28,95V14.26a1.73,1.73,0,0,0-1.11-1.55c-4.38-1.44-21.5-6.6-46.22-8a1.1,1.1,0,0,0-1.17,1.11V20.1a1,1,0,0,1-1.16,1c-8-1.24-16.88-2.29-26.39-3a1.27,1.27,0,0,1-1.17-1.25V3a1.37,1.37,0,0,0-1.16-1.32A211.61,211.61,0,0,0,101,0,178.14,178.14,0,0,0,78.51,1.87a1.4,1.4,0,0,0-1.16,1.35V16.91a1.28,1.28,0,0,1-1.16,1.26c-9.51.72-18.34,1.78-26.38,3a1,1,0,0,1-1.16-1V5.79a1.1,1.1,0,0,0-1.17-1.11c-24.74,1.43-41.94,6.59-46.34,8A1.73,1.73,0,0,0,0,14.26V95s-2.3,54.32,34.61,97.07c32.69,37.86,60,46.91,65.84,48.5a5.16,5.16,0,0,0,2.28,0c5.82-1.58,33.16-10.63,65.83-48.5C205.51,149.35,203.28,95,203.28,95Z"/>
            <path class="path" d="M101.38,68.5a21.75,21.75,0,1,0,21.7,21.81A21.77,21.77,0,0,0,101.38,68.5Z"/>
            <path class="path"
                  d="M182.44,87V42.75A1.92,1.92,0,0,0,181,41a385.2,385.2,0,0,0-78.26-8.05h-1.66a398.43,398.43,0,0,0-78.71,8.21,1.9,1.9,0,0,0-1.45,1.78l0,44.2v.24c0,3.27.09,54.82,33.38,93.35,18.71,21.67,35,33.81,46.15,40.44a2.79,2.79,0,0,0,2.56,0c11.14-6.61,27.36-18.74,46.12-40.45C183.22,141.12,182.46,87.63,182.44,87Zm-50.57,79.1c-2.69,3.13-5.32,6-7.87,8.69-.59.61-1.07.41-1.07-.44V155.78c0-14.05,13.64-21.19,18.14-23.17a2.49,2.49,0,0,0,1.42-2.11V116.39a1,1,0,0,0-1.41-.94c-37.93,15.49-72.25,3-79.51,0a.93.93,0,0,0-1.41.91V130.5a2.37,2.37,0,0,0,1.44,2.06c14.94,5.72,18,15.46,18,23.4v18.25c0,.85-.48,1-1.06.43-2.51-2.63-5.09-5.46-7.76-8.53-28.11-32.58-27.95-78.24-27.93-78.7V61.47a1.86,1.86,0,0,1,1.51-1.77,374.15,374.15,0,0,1,56.51-4.51h1.69a364.08,364.08,0,0,1,55.75,4.32,1.86,1.86,0,0,1,1.52,1.78v25.3C159.83,87.44,160.12,133.44,131.87,166.11Z"/>
        </g>
    </g>
</svg>
