<?xml version="1.0" encoding="utf-8"?>
<!-- Generator: Adobe Illustrator 22.0.1, SVG Export Plug-In . SVG Version: 6.00 Build 0)  -->
<svg version="1.1" id="REPAIR" xmlns="http://www.w3.org/2000/svg" xmlns:xlink="http://www.w3.org/1999/xlink" x="0px" y="0px"
	 viewBox="0 0 1800 1800" style="enable-background:new 0 0 1800 1800;" xml:space="preserve">
<style type="text/css">
	.st0{fill:#AAADAE;}
</style>
<g>
	<g>
		<path class="st0" d="M803.7,820.9L555.8,573l71.7-71.7l247.9,247.9l40.8-40.8L655.9,448.1l74.9-74.9c0.6-0.6,1.1-1.2,1.7-1.9
			c0.6-0.5,1.2-1,1.7-1.6l135.5-135.5c11.1-11.1,11.3-29.1,0.4-40.4l-1.5-1.6c-1.3-1.3-2.6-2.7-3.9-4C797,120.5,709.1,80,629.5,80
			c-53.7,0-99.8,17.8-133.5,51.5c-0.7,0.7-1.4,1.5-2.1,2.3c-0.4,0.4-0.9,0.8-1.3,1.2L185.3,442.3c-11.3,11.3-11.3,29.5,0,40.8
			l45.4,45.4L193.2,566l-45.4-45.4c-5.4-5.4-12.8-8.5-20.4-8.5c-7.7,0-15,3-20.4,8.5l-94.1,94.1c-11.3,11.3-11.3,29.5,0,40.8
			L210.3,853c5.4,5.4,12.8,8.5,20.4,8.5c7.7,0,15-3,20.4-8.5l94.1-94.1c11.3-11.3,11.3-29.5,0-40.8l-45.4-45.4l37.5-37.5l45.4,45.4
			c5.6,5.6,13,8.4,20.4,8.4c7.4,0,14.8-2.8,20.4-8.4l79.1-79.1l260.3,260.3L803.7,820.9z M629.5,137.7c58.8,0,124.3,28.3,178.7,76.5
			l-94.3,94.3L560,154.6C579.5,143.5,603,137.7,629.5,137.7z M230.7,791.8L74.1,635.2l53.3-53.3L284,738.4L230.7,791.8z
			 M261.1,629.7l-25-25l35.4-35.4l25,25L261.1,629.7z M403.1,619.3L246.5,462.7l266.6-266.6l156.6,156.6L403.1,619.3z"/>
		<path class="st0" d="M1764,1556.1l-593.7-593.7l-40.8,40.8l573.3,573.3l-71.7,71.7L1057.8,1075l-40.8,40.8l593.7,593.7
			c5.4,5.4,12.8,8.5,20.4,8.5c7.7,0,15-3,20.4-8.5L1764,1597C1775.3,1585.7,1775.3,1567.4,1764,1556.1z"/>
	</g>
	<path class="st0" d="M1780.4,264.3c-3.3-9.4-11.1-16.4-20.8-18.6c-9.7-2.2-19.8,0.7-26.8,7.7L1616.2,370l-109.3-109.3l116.6-116.6
		c7-7,9.9-17.2,7.7-26.8c-2.2-9.7-9.2-17.5-18.6-20.8c-29.1-10.1-59.5-15.3-90.4-15.3c-73.1,0-141.7,28.4-193.4,80.1
		c-51.7,51.7-80.1,120.3-80.1,193.4c0,35.3,6.7,69.6,19.4,101.5l-736.2,736.2c-31.9-12.7-66.2-19.4-101.5-19.4
		c-73.1,0-141.7,28.5-193.4,80.1c-73.8,73.8-99.2,185.2-64.8,283.8c3.3,9.4,11.1,16.4,20.8,18.6c9.7,2.2,19.8-0.7,26.8-7.7
		l116.6-116.6l109.3,109.3L329.2,1657c-7,7-9.9,17.2-7.7,26.8c2.2,9.7,9.2,17.5,18.6,20.8c29.1,10.2,59.5,15.3,90.4,15.3
		c0,0,0,0,0,0c73,0,141.7-28.5,193.4-80.1c79.6-79.6,99.7-196.4,60.6-294.8l736.3-736.3c31.9,12.7,66.2,19.4,101.5,19.4c0,0,0,0,0,0
		c73,0,141.7-28.4,193.4-80.1C1789.4,474.2,1814.9,362.9,1780.4,264.3z M583,1599.1c-40.8,40.8-94.9,63.2-152.6,63.2c0,0,0,0,0,0
		c-7.9,0-15.8-0.4-23.6-1.3l100.1-100.1c5.4-5.4,8.5-12.8,8.5-20.4c0-7.6-3-15-8.5-20.4l-150.1-150.1c-11.3-11.3-29.5-11.3-40.8,0
		L216,1470c-6.8-64.1,15.3-129.6,61.9-176.1c40.8-40.8,95-63.2,152.6-63.2c57.6,0,111.8,22.4,152.6,63.2
		C667.1,1378,667.1,1514.9,583,1599.1z M659.3,1288.5l-70.9-71l702.5-702.5l71,70.9L659.3,1288.5z M1674.8,507.2
		c-40.8,40.8-95,63.2-152.6,63.2s-111.8-22.4-152.6-63.2c-40.8-40.8-63.2-95-63.2-152.6s22.5-111.8,63.2-152.6
		c40.8-40.8,95-63.2,152.6-63.2c7.9,0,15.8,0.4,23.6,1.3l-100.1,100.1c-5.4,5.4-8.5,12.8-8.5,20.4c0,7.7,3,15,8.5,20.4l150.1,150.1
		c11.3,11.3,29.5,11.3,40.8,0l100.1-100.1C1743.5,395.2,1721.4,460.7,1674.8,507.2z"/>
</g>
</svg>
