<?xml version="1.0" encoding="utf-8"?>
<!-- Generator: Adobe Illustrator 22.0.1, SVG Export Plug-In . SVG Version: 6.00 Build 0)  -->
<svg version="1.1" id="FOLDERS" xmlns="http://www.w3.org/2000/svg" xmlns:xlink="http://www.w3.org/1999/xlink" x="0px" y="0px"
	 viewBox="0 0 1800 1800" style="enable-background:new 0 0 1800 1800;" xml:space="preserve">
<style type="text/css">
	.st0{fill:#AAADAE;}
</style>
<g>
	<g>
		<g>
			<path class="st0" d="M404,1798.8H88.3c-46.7,0-84.6-38-84.6-84.6V85.9c0-46.7,38-84.6,84.6-84.6H404c46.7,0,84.6,38,84.6,84.6
				v1628.2C488.6,1760.8,450.7,1798.8,404,1798.8z M88.3,64.3c-11.9,0-21.6,9.7-21.6,21.6v1628.2c0,11.9,9.7,21.6,21.6,21.6H404
				c11.9,0,21.6-9.7,21.6-21.6V85.9c0-11.9-9.7-21.6-21.6-21.6H88.3z"/>
		</g>
		<g>
			<path class="st0" d="M246.2,1623.1c-69.6,0-126.1-56.6-126.1-126.1c0-69.6,56.6-126.1,126.1-126.1s126.1,56.6,126.1,126.1
				C372.3,1566.5,315.7,1623.1,246.2,1623.1z M246.2,1433.9c-34.8,0-63.1,28.3-63.1,63.1c0,34.8,28.3,63.1,63.1,63.1
				s63.1-28.3,63.1-63.1C309.2,1462.2,280.9,1433.9,246.2,1433.9z"/>
		</g>
		<g>
			<path class="st0" d="M335.1,726.6h-178c-17.4,0-31.5-14.1-31.5-31.5c0-17.4,14.1-31.5,31.5-31.5h178c17.4,0,31.5,14.1,31.5,31.5
				C366.7,712.5,352.6,726.6,335.1,726.6z"/>
		</g>
		<g>
			<path class="st0" d="M335.1,591.4h-178c-17.4,0-31.5-14.1-31.5-31.5s14.1-31.5,31.5-31.5h178c17.4,0,31.5,14.1,31.5,31.5
				S352.6,591.4,335.1,591.4z"/>
		</g>
		<g>
			<path class="st0" d="M335.1,456.3h-178c-17.4,0-31.5-14.1-31.5-31.5c0-17.4,14.1-31.5,31.5-31.5h178c17.4,0,31.5,14.1,31.5,31.5
				C366.7,442.2,352.6,456.3,335.1,456.3z"/>
		</g>
		<g>
			<path class="st0" d="M335.1,321.1h-178c-17.4,0-31.5-14.1-31.5-31.5c0-17.4,14.1-31.5,31.5-31.5h178c17.4,0,31.5,14.1,31.5,31.5
				C366.7,307,352.6,321.1,335.1,321.1z"/>
		</g>
	</g>
	<g>
		<g>
			<path class="st0" d="M1057.9,1798.8H742.2c-46.7,0-84.6-38-84.6-84.6V85.9c0-46.7,38-84.6,84.6-84.6h315.7
				c46.7,0,84.6,38,84.6,84.6v1628.2C1142.5,1760.8,1104.5,1798.8,1057.9,1798.8z M742.2,64.3c-11.9,0-21.6,9.7-21.6,21.6v1628.2
				c0,11.9,9.7,21.6,21.6,21.6h315.7c11.9,0,21.6-9.7,21.6-21.6V85.9c0-11.9-9.7-21.6-21.6-21.6H742.2z"/>
		</g>
		<g>
			<path class="st0" d="M900,1623.1c-69.6,0-126.1-56.6-126.1-126.1c0-69.6,56.6-126.1,126.1-126.1c69.6,0,126.1,56.6,126.1,126.1
				C1026.1,1566.5,969.6,1623.1,900,1623.1z M900,1433.9c-34.8,0-63.1,28.3-63.1,63.1c0,34.8,28.3,63.1,63.1,63.1
				c34.8,0,63.1-28.3,63.1-63.1C963.1,1462.2,934.8,1433.9,900,1433.9z"/>
		</g>
		<g>
			<path class="st0" d="M989,726.6H811c-17.4,0-31.5-14.1-31.5-31.5c0-17.4,14.1-31.5,31.5-31.5h178c17.4,0,31.5,14.1,31.5,31.5
				C1020.5,712.5,1006.4,726.6,989,726.6z"/>
		</g>
		<g>
			<path class="st0" d="M989,591.4H811c-17.4,0-31.5-14.1-31.5-31.5s14.1-31.5,31.5-31.5h178c17.4,0,31.5,14.1,31.5,31.5
				S1006.4,591.4,989,591.4z"/>
		</g>
		<g>
			<path class="st0" d="M989,456.3H811c-17.4,0-31.5-14.1-31.5-31.5c0-17.4,14.1-31.5,31.5-31.5h178c17.4,0,31.5,14.1,31.5,31.5
				C1020.5,442.2,1006.4,456.3,989,456.3z"/>
		</g>
		<g>
			<path class="st0" d="M989,321.1H811c-17.4,0-31.5-14.1-31.5-31.5c0-17.4,14.1-31.5,31.5-31.5h178c17.4,0,31.5,14.1,31.5,31.5
				C1020.5,307,1006.4,321.1,989,321.1z"/>
		</g>
	</g>
	<g>
		<g>
			<path class="st0" d="M1711.7,1798.8H1396c-46.7,0-84.6-38-84.6-84.6V85.9c0-46.7,38-84.6,84.6-84.6h315.7
				c46.7,0,84.6,38,84.6,84.6v1628.2C1796.3,1760.8,1758.4,1798.8,1711.7,1798.8z M1396,64.3c-11.9,0-21.6,9.7-21.6,21.6v1628.2
				c0,11.9,9.7,21.6,21.6,21.6h315.7c11.9,0,21.6-9.7,21.6-21.6V85.9c0-11.9-9.7-21.6-21.6-21.6H1396z"/>
		</g>
		<g>
			<path class="st0" d="M1553.8,1623.1c-69.6,0-126.1-56.6-126.1-126.1c0-69.6,56.6-126.1,126.1-126.1s126.1,56.6,126.1,126.1
				C1680,1566.5,1623.4,1623.1,1553.8,1623.1z M1553.8,1433.9c-34.8,0-63.1,28.3-63.1,63.1c0,34.8,28.3,63.1,63.1,63.1
				s63.1-28.3,63.1-63.1C1616.9,1462.2,1588.6,1433.9,1553.8,1433.9z"/>
		</g>
		<g>
			<path class="st0" d="M1642.8,726.6h-178c-17.4,0-31.5-14.1-31.5-31.5c0-17.4,14.1-31.5,31.5-31.5h178c17.4,0,31.5,14.1,31.5,31.5
				C1674.4,712.5,1660.2,726.6,1642.8,726.6z"/>
		</g>
		<g>
			<path class="st0" d="M1642.8,591.4h-178c-17.4,0-31.5-14.1-31.5-31.5s14.1-31.5,31.5-31.5h178c17.4,0,31.5,14.1,31.5,31.5
				S1660.2,591.4,1642.8,591.4z"/>
		</g>
		<g>
			<path class="st0" d="M1642.8,456.3h-178c-17.4,0-31.5-14.1-31.5-31.5c0-17.4,14.1-31.5,31.5-31.5h178c17.4,0,31.5,14.1,31.5,31.5
				C1674.4,442.2,1660.2,456.3,1642.8,456.3z"/>
		</g>
		<g>
			<path class="st0" d="M1642.8,321.1h-178c-17.4,0-31.5-14.1-31.5-31.5c0-17.4,14.1-31.5,31.5-31.5h178c17.4,0,31.5,14.1,31.5,31.5
				C1674.4,307,1660.2,321.1,1642.8,321.1z"/>
		</g>
	</g>
</g>
</svg>
