<?xml version="1.0" encoding="utf-8"?>
<!-- Generator: Adobe Illustrator 22.0.1, SVG Export Plug-In . SVG Version: 6.00 Build 0)  -->
<svg version="1.1" id="STATISTICS" xmlns="http://www.w3.org/2000/svg" xmlns:xlink="http://www.w3.org/1999/xlink" x="0px" y="0px"
	 viewBox="0 0 1800 1800" style="enable-background:new 0 0 1800 1800;" xml:space="preserve">
<style type="text/css">
	.st0{fill:#AAADAE;}
</style>
<g>
	<g>
		<g>
			<path class="st0" d="M152.7,528C89.5,528,38,476.5,38,413.3c0-63.3,51.5-114.7,114.7-114.7c63.3,0,114.7,51.5,114.7,114.7
				C267.5,476.5,216,528,152.7,528z M152.7,360.8c-29,0-52.5,23.6-52.5,52.5s23.6,52.5,52.5,52.5c29,0,52.5-23.6,52.5-52.5
				S181.7,360.8,152.7,360.8z"/>
		</g>
		<g>
			<path class="st0" d="M1124,703.7c-63.3,0-114.7-51.5-114.7-114.7c0-63.3,51.5-114.7,114.7-114.7c63.3,0,114.7,51.5,114.7,114.7
				C1238.7,652.2,1187.3,703.7,1124,703.7z M1124,536.4c-29,0-52.5,23.6-52.5,52.5c0,29,23.6,52.5,52.5,52.5
				c29,0,52.5-23.6,52.5-52.5C1176.5,560,1153,536.4,1124,536.4z"/>
		</g>
		<g>
			<path class="st0" d="M638.4,391.1c-103.7,0-188.1-84.4-188.1-188.1S534.6,14.8,638.4,14.8c103.7,0,188.1,84.4,188.1,188.1
				S742.1,391.1,638.4,391.1z M638.4,77c-69.4,0-125.9,56.5-125.9,125.9s56.5,125.9,125.9,125.9c69.4,0,125.9-56.5,125.9-125.9
				S707.8,77,638.4,77z"/>
		</g>
		<g>
			<path class="st0" d="M1609.7,391.1c-103.7,0-188.1-84.4-188.1-188.1s84.4-188.1,188.1-188.1c103.7,0,188.1,84.4,188.1,188.1
				S1713.4,391.1,1609.7,391.1z M1609.7,77c-69.4,0-125.9,56.5-125.9,125.9s56.5,125.9,125.9,125.9c69.4,0,125.9-56.5,125.9-125.9
				S1679.1,77,1609.7,77z"/>
		</g>
		<g>
			
				<rect x="220" y="291.2" transform="matrix(0.886 -0.4637 0.4637 0.886 -108.0043 205.2449)" class="st0" width="286.8" height="62.2"/>
		</g>
		<g>
			
				<rect x="880.5" y="239.9" transform="matrix(0.6417 -0.767 0.767 0.6417 -3.0717 853.2247)" class="st0" width="62.2" height="380.1"/>
		</g>
		<g>
			<polygon class="st0" points="1216.1,584.9 1177,536.5 1473.1,296.8 1512.3,345.2 			"/>
		</g>
	</g>
	<g>
		<path class="st0" d="M223.3,1785.2H82.1c-44.1,0-79.9-36.3-79.9-81V762c0-44.7,35.9-81,79.9-81h141.2c44.1,0,79.9,36.3,79.9,81
			v942.2C303.3,1748.8,267.4,1785.2,223.3,1785.2z M82.1,743.1c-9.8,0-17.7,8.4-17.7,18.8v942.2c0,10.4,7.9,18.8,17.7,18.8h141.2
			c9.8,0,17.7-8.4,17.7-18.8V762c0-10.4-7.9-18.8-17.7-18.8H82.1z"/>
	</g>
	<g>
		<path class="st0" d="M709,1785.2H567.8c-44.1,0-79.9-38.8-79.9-86.6V651.5c0-47.7,35.9-86.6,79.9-86.6H709
			c44.1,0,79.9,38.8,79.9,86.6v1047.1C788.9,1746.3,753,1785.2,709,1785.2z M567.8,627.1c-9.6,0-17.7,11.2-17.7,24.4v1047.1
			c0,13.2,8.1,24.4,17.7,24.4H709c9.6,0,17.7-11.2,17.7-24.4V651.5c0-13.2-8.1-24.4-17.7-24.4L567.8,627.1L567.8,627.1z"/>
	</g>
	<g>
		<path class="st0" d="M1194.6,1785.2h-141.2c-44.1,0-79.9-31.6-79.9-70.5V972c0-38.8,35.9-70.5,79.9-70.5h141.2
			c44.1,0,79.9,31.6,79.9,70.5v742.7C1274.5,1753.6,1238.7,1785.2,1194.6,1785.2z M1053.4,963.8c-11.4,0-17.7,6.2-17.7,8.2v742.7
			c0,2.1,6.3,8.2,17.7,8.2h141.2c11.4,0,17.7-6.2,17.7-8.2V972c0-2.1-6.3-8.2-17.7-8.2L1053.4,963.8L1053.4,963.8z"/>
	</g>
	<g>
		<path class="st0" d="M1680.3,1785.2h-141.2c-44.1,0-79.9-38.8-79.9-86.6V651.5c0-47.7,35.8-86.6,79.9-86.6h141.2
			c44.1,0,79.9,38.8,79.9,86.6v1047.1C1760.2,1746.3,1724.3,1785.2,1680.3,1785.2z M1539.1,627.1c-9.6,0-17.7,11.2-17.7,24.4v1047.1
			c0,13.2,8.1,24.4,17.7,24.4h141.2c9.6,0,17.7-11.2,17.7-24.4V651.5c0-13.2-8.1-24.4-17.7-24.4L1539.1,627.1L1539.1,627.1z"/>
	</g>
</g>
</svg>
